/* XPM */
static char *result[] = {
/* columns rows colors chars-per-pixel */
"64 64 147 2 ",
"   c #5A4333",
".  c #5C4433",
"X  c #5A4134",
"o  c #5A4334",
"O  c #5C4334",
"+  c #5C4335",
"@  c #5B4434",
"#  c #5D4434",
"$  c #5C4534",
"%  c #5D4534",
"&  c #5C4435",
"*  c #5E4534",
"=  c #5E4635",
"-  c #5E4636",
";  c #5F4636",
":  c #604736",
">  c #614837",
",  c #624837",
"<  c #634937",
"1  c #614838",
"2  c #634938",
"3  c #644938",
"4  c #654A38",
"5  c #654A39",
"6  c #654B39",
"7  c #664A39",
"8  c #664B39",
"9  c #664B3A",
"0  c #674C39",
"q  c #674C3A",
"w  c #684C3A",
"e  c #684D3A",
"r  c #694D3B",
"t  c #6A4E3B",
"y  c #6C4E3B",
"u  c #6B4F3D",
"i  c #6C4F3C",
"p  c #6C4F3D",
"a  c #6C503C",
"s  c #6D503D",
"d  c #6E513E",
"f  c #6F523E",
"g  c #70523E",
"h  c #70533E",
"j  c #70533F",
"k  c #71533F",
"l  c #70543F",
"z  c #725440",
"x  c #735440",
"c  c #725540",
"v  c #735540",
"b  c #735441",
"n  c #745540",
"m  c #745541",
"M  c #755641",
"N  c #745741",
"B  c #745542",
"V  c #765742",
"C  c #775742",
"Z  c #785843",
"A  c #795843",
"S  c #7A5943",
"D  c #7A5A44",
"F  c #7B5A44",
"G  c #7A5A45",
"H  c #7B5A45",
"J  c #7B5B45",
"K  c #7C5B45",
"L  c #7E5C46",
"P  c #7F5D47",
"I  c #805D47",
"U  c #805E47",
"Y  c #805E48",
"T  c #815E48",
"R  c #825F48",
"E  c #826049",
"W  c #836049",
"Q  c #846049",
"!  c #846149",
"~  c #856149",
"^  c #866249",
"/  c #84614A",
"(  c #85614A",
")  c #84624A",
"_  c #85624A",
"`  c #86624A",
"'  c #87624A",
"]  c #86634A",
"[  c #87634A",
"{  c #86624B",
"}  c #87624B",
"|  c #86634B",
" . c #87634B",
".. c #88634B",
"X. c #88644B",
"o. c #89644B",
"O. c #88644C",
"+. c #89644C",
"@. c #89654C",
"#. c #8A654C",
"$. c #8B654C",
"%. c #8A654D",
"&. c #8B654D",
"*. c #8B664C",
"=. c #8B664D",
"-. c #8B664E",
";. c #8C664D",
":. c #8C674D",
">. c #8D674D",
",. c #8D674E",
"<. c #8E674E",
"1. c #8D684E",
"2. c #8D684F",
"3. c #8E684E",
"4. c #8E684F",
"5. c #8F684F",
"6. c #8F694F",
"7. c #90694F",
"8. c #906A4F",
"9. c #8F6950",
"0. c #906950",
"q. c #906A50",
"w. c #916A50",
"e. c #916A51",
"r. c #926A50",
"t. c #926B50",
"y. c #926B51",
"u. c #936B51",
"i. c #936C51",
"p. c #936C52",
"a. c #946C51",
"s. c #946C52",
"d. c #946D52",
"f. c #956D52",
"g. c #956D53",
"h. c #966E53",
"j. c #976E53",
"k. c #976F53",
"l. c #966E54",
"z. c #976E54",
"x. c #976F54",
"c. c #986F54",
"v. c #986F55",
"b. c #987054",
"n. c #987055",
"m. c #997055",
"M. c None",
/* pixels */
"M.M.M.M.M.M.M.M.M.M.M.M.M.M.M.M.M.M.M.M.2 9 s E m.m.m.m.m.m.m.m.m.m.m.m.m.m.C 5 8 M.M.M.M.M.M.M.M.M.M.M.M.M.M.M.M.M.M.M.M.M.M.M.",
"M.M.M.M.M.M.M.M.M.M.M.. & = h U U ` e.m.m.m.m.m.m.m.m.m.m.m.m.m.m.m.m.m.m.m.m.m.m.2.U m & & M.M.M.M.M.M.M.M.M.M.M.M.M.M.M.M.M.M.",
"M.M.M.M.M.M.M.M.M.M.i %.m.m.m.m.m.m.m.m.m.m.m.m.m.m.m.n.n.v.v.g.=.#.r.v.n.m.m.m.m.m.m.m.m.=.> * M.M.M.M.M.M.M.M.M.M.M.M.M.M.M.M.",
"M.M.M.M.M.M.M.M.M.d c.m.m.m.m.m.m.m.m.m.m.m.z.i.w.w.5.:.*.#.#.#.#.#.#.#.#.,.w.u.c.m.m.m.m.m.m.x.w.Y I z M.M.M.M.M.M.M.M.M.M.M.M.",
"M.M.M.M.M.M.M.M.o E m.m.m.m.m.m.m.m.m.r.$.$.#.#.#.#.#.#.#.#.#.#.#.#.#.#.#.#.#.#.$.$.g.m.m.m.m.m.m.m.m.) M.M.M.M.M.M.M.M.M.M.M.M.",
"M.M.M.M.M.M.M.M.b m.m.m.m.v.u.8.;.#.#.#.#.#.#.#.#.#.#.#.#.#.#.#.#.#.#.#.#.#.#.#.#.#.#.#.6.u.i.g.m.m.m.d.M M.M.M.M.M.M.M.M.M.M.M.",
"M.M.M.M.M.M.M.M.s.m.m.m.m.x.#.#.#.#.#.#.#.#.#.#.#.#.#.#.#.#.#.#.#.#.#.#.#.#.#.#.#.#.#.#.#.#.#.$.;.6.v.m.x.3 M.M.M.M.M.M.M.M.M.M.",
"M.M.M.M.M.M.M.v m.m.m.m.m.x.#.#.#.o._  .#.#.#.#.#.#.#.#.#.#.#.#.#.#.#.#.#.#.#.#...( #.#.#.#.#.#.#.#.r.m.m.4.M.M.M.M.M.M.M.M.M.M.",
"M.M.M.M.M.M.$ w.m.m.m.m.m.x.#.#.@.! W W ` #.#.#.#.#.#.#.#.#.#.#.#.#.#.#.#.#.#.#.! W ` #.#.#.#.#.#.#.#.w.m.n.x X M.M.M.M.M.M.M.M.",
"M.M.M.M.M.M.R m.m.m.m.h.&.#.#.#.#.W W W ` #.#.#.#.#.#.#.#.#.#.#.#.#.#.#.#.#.#.#.+._ #.#.#.#.#.#.#.#.#.,.c.m.m.q M.M.M.M.M.M.M.M.",
"M.M.M.M.M.c c.m.m.m.m.,.#.#.#.#.#.! ! ! @.#.#.#.#.#.#.#.#.#.#.#.#.#.#.#.#.#.#.#.#.#.#.#.#.#.#.#.#.#.#.#.3.m.m.0.M.M.M.M.M.M.M.M.",
"M.M.M.M.M.-.m.m.m.m.7.#.#.#.#.#.#.#.#.#.#.#.#.#.#.#.#.+.+.X.~ ^ o.+.#.#.#.#.#.#.#.#.#.o.W  .#.#.#.#.#.#.#.m.m.m.Z M.M.M.M.M.M.M.",
"M.M.M.M.* m.m.m.m.h.=.#.#.#.#.#.#.#.#.#.#.#.#...` ` ( W W W W W W ! _ ' +.#.#.#.#.#.#.( W ` #.#.#.#.#.#.#.m.m.m.d.: M.M.M.M.M.M.",
"M.M.M.= m.m.m.m.m.s.#.#.#.#.#.#.#.X.( W W W W W W W W W W W W W W W W W W W W +.#.#.#.#.` #.#.#.#.#.#.#.#.n.n.m.m.l., M.M.M.M.M.",
"M.M.M.A m.m.m.m.c.#.#.#.#.#.#.#.` W W W W W W W W W W W W W W W W W W W W W W W W ( ` +.#.#.#.#.#.#.#.#.#.=.=.r.m.m.O.M.M.M.M.M.",
"M.M.M.f.m.m.m.m.,.#.#.#.#.#.#.#.W W W W W W W W W W W W W W W W W W W W W W W W W W W W #.#.#.#.#.#.#.#.#.#.#.#.s.m.m.- M.M.M.M.",
"M.M.J m.m.m.m.i.#.#.#.#.#.#.+.W W W W W W W W W W W W W W W W W W W W W W W W W W W W W ` #.#.#.#.#.#.#.#.#.#.#.y.m.m.m.u M.M.M.",
"M.@ c.m.m.m.m.w.#.#.#.#.#.#.[ W W W W W W W W W W W W W W W W W W W W W W W W W W W W W W ..#.#.#.#.#.#.#.#.#.#.y.m.m.m./ M.M.M.",
"M.+.m.m.m.m.s.#.#.#.#.#.#.#.X.W W W W W W W W W W W W W W W W W W W W W W W W W W W W W W Q o.#.#.#.#.#.#.#.#.#.y.m.m.m.m.n M.M.",
"r c.m.m.m.x.$.#.#.#.#.#.#.#.#.W W W W W W W W W W W W W W W W W W W W W W W W W W W W W W W ! #.#.#.#.#.#.#.#.#.;.,.,.m.m.x., M.",
"t m.m.m.m.g.#.#.#.#.#.#.+.X.X.W W W W W W W W W W W W W W W W W W W W W W W W W W W W W W W W X.#.#.#.#.#.#.#.#.#.#.#.u.n.m.%.M.",
"t m.m.m.m.k.$.#.#.#.#.#._ W W W W W W W W W W W W W W W W W W W W W W W W W W W W W W W W W W Q #.#.#.#.#.#.#.#.#.#.#.#.y.m.m.t ",
"t m.m.m.m.m.*.#.#.#.#.+.! W W W W W W W W W W W W W W W W W W W W W W W W W W W W W W W W W W W W #.#.#.#.#.#.#.#.#.#.#.q.m.m.t ",
"t m.m.m.m.m.*.#.#.#.#.X.W W !  .W W W W W W W W W W W W W W W W W W W W W W W W W W W W W W W W W  .#.#.#.#.#.#.#.#.#.#.q.m.m.t ",
"6 s.m.m.m.m.*.#.#.#.#.X.W W  .#. .W W W W W W W W W W W W W W W W W W W W W W W W W W W W W W W W W +.#.#.#.#.#.#.#.#.#.q.m.m.t ",
"4 s.m.m.m.m.5.#.#.#.#.X.W W ` o._ W W W W W W W W W W W W W W W W W W W W W W W W W W W W W W W W W ~ #.#.#.#.#.#.#.#.#.y.m.l.w ",
"M.9.m.m.m.m.m.u.#.#.#.X.W W W W W W W W W W W W W W W W W W W W W W W W W W W W W W W W W W W W W W ! #.#.#.#.#.#.#.#.#.s.m.9.M.",
"M.9.m.m.m.m.m.u.#.#.#.X.W W W W W W W W W W W W W W W W W W W W W W W W W W W W W W W W W W W W W W ` #.#.#.#.#.#.#.#.#.j.m.,.M.",
"M.=.m.m.m.m.y.=.#.#.#.X.W W W W W W W W W W W W W W W W W W W W W W W W W W W W W W W W W W W W W W } #.#.#.#.#.#.#.#.#.m.m.O.M.",
"M.+.m.m.m.m.*.#.#.#.#.X.W W W W _ W W W W W W W W W W W W W W W W W W W W W W W W W W ! ( W W W W W X.#.#.#.#.#.#.#.#.#.m.m._ M.",
"M.{ m.m.m.m.*.#.#.#.#.X.W W ` o.#.! W W W W W W W W W W W W W W W W W W W W W W W W W  .#._ W W W W +.#.#.#.#.#.#.#.#.#.m.m._ M.",
"M._ m.m.m.m.<.#.#.#.#.X.W W  .#.#.#.` W W W W W W W W W W W W W W W W W W W W W W W W  .o.( W W W W +.#.#.#.#.#.#.#.#.#.m.m._ M.",
"M._ m.m.m.m.<.#.#.#.#.o.W W  .#.#.#.W W W W W W W W W W W W W W W W W W W W W W W W W W W W W ! W W +.#.#.#.#.#.#.#.#.#.m.m._ M.",
"M._ m.m.m.m.w.#.#.#.#.o.Q W ( ..o.W W W W W W W W W W W W W W W W W W W W W W W W W W W W ( #. .W W +.#.#.#.#.#.#.#.#.#.m.m._ M.",
"M._ m.m.m.m.a.#.#.#.#.+.! W W W W W W W W W W W W W W W W W W W W W W W W W W W W W W W W Q o...W W +.#.#.#.#.#.#.#.#.,.m.m.P M.",
"M._ m.m.m.m.f.#.#.#.#.@.( W W W W W W W W W W W W W W W W W W W W W W W W W W W W W W W W W W W W W +.#.#.#.#.#.#.#.#.w.m.m.D M.",
"M._ m.m.m.m.b.#.#.#.#.@.( W W W W W W W W W W W W W W W W W W W W W W W W W W W W W W W W W W W W ! @.#.#.#.#.#.#.#.#.a.m.m.m M.",
"M._ m.m.m.m.m.#.#.#.#.#._ W W W W W W W W W W W W W W W W W W W W W W W W W W W W W _ #.! W W W W ( #.#.#.#.#.#.#.#.#.x.m.m.a M.",
"M._ m.m.m.m.m.#.#.#.#.#._ W W W W W W W W W W W W W W W W W W W W W W W W W W W W ` #.#.+.~ W W W ` #.#.#.#.#.#.#.#.#.n.m.m.# M.",
"M.K m.m.m.m.m.y.#.#.#.#.o.W W W W W W W W W W W W W W W W W W W W W W W W W W W W ! #.#.#.` W W W ] #.#.#.#.#.#.#.#.#.n.m.m.# M.",
"M.l m.m.m.m.m.p.#.#.#.#.#.( W W W W W W W W W W W W W W W W W W W W W W W W W W W W +.#.X.W W W W @.#.#.#.#.#.#.#.#.,.m.m.m.# M.",
"M.M.P m.m.m.m.c.;.#.#.#.#.#.( W W W W W W W W W W W W W W W W W W W W W W W W W W W ! / ! W W W X.#.#.#.#.#.#.#.#.#.h.m.m.I M.M.",
"M.M.5 c.m.m.m.m.c.#.#.#.#.#.` W W W W W W W W W W W W W W W W W W W W W W W W W W W W W W W W ( #.#.#.#.#.#.#.#.#.<.m.m.c.7 M.M.",
"M.M.M. .m.m.m.m.m.w.#.#.#.#.o.W W W W W W W W W W W W W W W W W W W W W W W W W W W W W W W W X.#.#.#.#.#.#.#.#.=.c.m.m. .M.M.M.",
"M.M.M., n.m.m.m.m.f.$.#.#.#.#.#.#.@.W W W W W W W W W W W W W W W W W W W W W W W W W W W W Q #.#.` W @.#.#.#.#.y.m.m.m.e M.M.M.",
"M.M.M.M.C m.m.m.m.m.,.#.#.#.#.#.#.( W W W W W W W W W W W W W W W W W W W W W W W ( W W W W ..#.` W W ! +.#.#.$.g.m.m.G M.M.M.M.",
"M.M.M.M.. c.m.m.m.m.m.#.#.#.#.#.o.W W W W W W W W W W W W W W W W W W W W W W W #.#.! W W ' #.#.o.W W ( #.#.#.6.m.m.v.% M.M.M.M.",
"M.M.M.M.M.L m.m.m.m.m.s.#.#.#.#.#.W W W W W W W W W W W W W W W W W W W W W W W o.#.W W W X.#.#.#.Q W ` #.#.;.m.m.m.R M.M.M.M.M.",
"M.M.M.M.M.1 h.m.m.m.m.c.3.#.#.#.#...W W W W W W W W W W W W W W W W W W W W W W W W W W ! #.#.#.#.#.#.#.#.#.s.m.m.x.0 M.M.M.M.M.",
"M.M.M.M.M.M.e m.m.m.m.m.w.#.#.#.#.#.` ! W W W W W W W W W W W W W W W W W W ..` W W ! ` o.#.#.#.+.+.#.#.#.=.h.m.m.V M.M.M.M.M.M.",
"M.M.M.M.M.M.M.P m.m.m.m.n.#.#.#.#.#.#.+.+.+.( W W W W W W W W W W W W W W W #.#.+.+.+.#.#.#.#.+.Q ` #.#.#.4.m.m.6.  M.M.M.M.M.M.",
"M.M.M.M.M.M.M.B x.m.m.m.m.h.=.#.#.#.#.#.#.#.#.#.#.X.{ _ _ ( Q W W Q ( _ ` o.#.#.#.#.#.#.#.#.#. .Q ( #.#.>.m.m.m.S M.M.M.M.M.M.M.",
"M.M.M.M.M.M.M.M.e.m.m.m.m.m.7.#.#.#.#.#.#.#.#.#.#.#.#.#.#.#.o.X.X.o.#.#.#.#.#.#.#.#.#.#.#.#.#.#.o.+.#.#.g.m.m.y.M.M.M.M.M.M.M.M.",
"M.M.M.M.M.M.M.M.q g.m.m.m.m.s.#.#.#.#.#.:.#.#.#.#.#.#.#.#.#.#.#.#.#.#.#.#.#.#.#.#.#.#.#.#.#.#.#.#.#.#.3.n.m.m.T M.M.M.M.M.M.M.M.",
"M.M.M.M.M.M.M.M.M.C m.m.m.m.m.1.#.#.#.y.x.:.#.#.#.#.#.#.#.#.#.#.#.#.#.#.#.#.#.#.#.#.#.#.#.#.#.#.#.#.,.s.m.m.W M.M.M.M.M.M.M.M.M.",
"M.M.M.M.M.M.M.M.M.p h.m.m.m.m.m.m.g.g.m.m.6.#.#.#.4.#.#.#.#.#.#.#.#.#.#.#.#.#.#.#.#.#.#.#.*.;.,.f.m.m.m.m.m.k M.M.M.M.M.M.M.M.M.",
"M.M.M.M.M.M.M.M.M.M.R m.m.m.m.m.m.m.m.m.m.m.u.u.p.m.y.#.#.#.#.#.#.#.#.#.#.#.#.#.#.:.u.u.i.g.m.m.m.m.m.m.m.0.M.M.M.M.M.M.M.M.M.M.",
"M.M.M.M.M.M.M.M.M.M.O c.m.m.m.m.m.m.m.m.m.m.m.m.m.m.m.c.t.=.$.#.#.#.#.#.#.$.;.j.m.m.m.m.m.m.m.m.m.m.m.m.m.z M.M.M.M.M.M.M.M.M.M.",
"M.M.M.M.M.M.M.M.M.M.M.m c.m.m.m.m.m.m.m.m.m.m.m.m.m.m.m.m.m.m.j.y.w.w.t.d.m.m.m.m.m.m.m.m.m.m.m.m.m.m.p.Q . M.M.M.M.M.M.M.M.M.M.",
"M.M.M.M.M.M.M.M.M.M.M.M.= ; x m.m.m.m.m.m.m.m.m.m.m.m.m.m.m.m.m.m.m.m.m.m.m.m.m.m.m.m.m.m.m.m.m.| 3 ; * M.M.M.M.M.M.M.M.M.M.M.M.",
"M.M.M.M.M.M.M.M.M.M.M.M.M.M.M.& & N F U  .h.m.m.m.m.m.m.m.m.m.m.m.m.m.m.m.m.m.m.m.m.m.q.U H j & . M.M.M.M.M.M.M.M.M.M.M.M.M.M.M.",
"M.M.M.M.M.M.M.M.M.M.M.M.M.M.M.M.M.M.M.M.M.M.< q s ] m.m.m.m.m.m.m.m.m.m.m.m.m...g q M.M.M.M.M.M.M.M.M.M.M.M.M.M.M.M.M.M.M.M.M.M.",
"M.M.M.M.M.M.M.M.M.M.M.M.M.M.M.M.M.M.M.M.M.M.M.M.M.M.+ ; f ! { 2.c.m.e.{ E i + M.M.M.M.M.M.M.M.M.M.M.M.M.M.M.M.M.M.M.M.M.M.M.M.M.",
"M.M.M.M.M.M.M.M.M.M.M.M.M.M.M.M.M.M.M.M.M.M.M.M.M.M.M.M.M.M.M.M.r t y M.M.M.M.M.M.M.M.M.M.M.M.M.M.M.M.M.M.M.M.M.M.M.M.M.M.M.M.M."
};
