/* XPM */
static char *result[] = {
/* columns rows colors chars-per-pixel */
"64 64 142 2 ",
"   c #5B4232",
".  c #5B4333",
"X  c #5B4433",
"o  c #594234",
"O  c #5A4334",
"+  c #5B4334",
"@  c #5C4334",
"#  c #5B4434",
"$  c #5B4534",
"%  c #5C4434",
"&  c #5D4434",
"*  c #5C4534",
"=  c #5D4535",
"-  c #5E4535",
";  c #624736",
":  c #624837",
">  c #644938",
",  c #644A38",
"<  c #654A38",
"1  c #654A39",
"2  c #664B39",
"3  c #664B3A",
"4  c #674C39",
"5  c #674C3A",
"6  c #674D3A",
"7  c #684D3A",
"8  c #694D3A",
"9  c #684D3B",
"0  c #6A4E3B",
"q  c #6B4E3B",
"w  c #6A4D3C",
"e  c #6B4F3C",
"r  c #6C4F3C",
"t  c #6D503C",
"y  c #6C503D",
"u  c #6D503D",
"i  c #6C503E",
"p  c #6D503E",
"a  c #6E513E",
"s  c #6F523E",
"d  c #6F523F",
"f  c #70523E",
"g  c #70523F",
"h  c #71533F",
"j  c #72543F",
"k  c #715340",
"l  c #725440",
"z  c #735541",
"x  c #745540",
"c  c #745541",
"v  c #745641",
"b  c #755641",
"n  c #755642",
"m  c #775742",
"M  c #775643",
"N  c #775743",
"B  c #765843",
"V  c #785942",
"C  c #795843",
"Z  c #785943",
"A  c #795944",
"S  c #7A5844",
"D  c #7A5944",
"F  c #7B5A44",
"G  c #7B5A45",
"H  c #7C5B45",
"J  c #7D5B45",
"K  c #7D5C46",
"L  c #7E5D46",
"P  c #7E5D47",
"I  c #805E47",
"U  c #815F47",
"Y  c #805E48",
"T  c #805F48",
"R  c #815F48",
"E  c #836049",
"W  c #846049",
"Q  c #846149",
"!  c #856149",
"~  c #84614A",
"^  c #85614A",
"/  c #85624A",
"(  c #86624A",
")  c #87624A",
"_  c #86634A",
"`  c #87634A",
"'  c #86624B",
"]  c #87624B",
"[  c #86634B",
"{  c #87634B",
"}  c #88634B",
"|  c #88644B",
" . c #89644B",
".. c #88644C",
"X. c #89644C",
"o. c #89654C",
"O. c #8A654C",
"+. c #8B654C",
"@. c #8A654D",
"#. c #8A664D",
"$. c #8B664D",
"%. c #8B674D",
"&. c #8B664E",
"*. c #8C664D",
"=. c #8C674D",
"-. c #8D674D",
";. c #8C664E",
":. c #8C674E",
">. c #8D674E",
",. c #8D674F",
"<. c #8D684F",
"1. c #8E684E",
"2. c #8E684F",
"3. c #8F684F",
"4. c #8F694F",
"5. c #90694F",
"6. c #8F6950",
"7. c #906950",
"8. c #906A50",
"9. c #916A50",
"0. c #916A51",
"q. c #926A50",
"w. c #926B51",
"e. c #936B51",
"r. c #936C51",
"t. c #936C52",
"y. c #946C52",
"u. c #946D52",
"i. c #956D52",
"p. c #956D53",
"a. c #966D53",
"s. c #966E53",
"d. c #976E53",
"f. c #966E54",
"g. c #976E54",
"h. c #976F54",
"j. c #986F54",
"k. c #986F55",
"l. c #987054",
"z. c #987055",
"x. c #997055",
"c. c None",
/* pixels */
"c.c.c.c.c.c.c.c.c.c.c.c.c.c.c.c.c.c.c.c.c.c.c.c.c.c.c.c.c.c.c.2 r 7 c.c.c.c.c.c.c.c.c.c.c.c.c.c.c.c.c.c.c.c.c.c.c.c.c.c.c.c.c.c.",
"c.c.c.c.c.c.c.c.c.c.c.c.c.c.c.c.c.c.c.c.c.c.c.c.c.c.c.c.$ 9 @.p.x.u.X., + c.c.c.c.c.c.c.c.c.c.c.c.c.c.c.c.c.c.c.c.c.c.c.c.c.c.c.",
"c.c.c.c.c.c.c.c.c.c.c.c.c.c.c.c.c.c.c.c.c.c.c.c.c.c.c.v 5.x.x.x.x.x.x.x.7.h C c.c.c.c.c.c.c.c.c.c.c.c.c.c.c.c.c.c.c.c.c.c.c.c.c.",
"c.c.c.c.c.c.c.c.c.c.c.c.c.c.c.c.c.c.c.c.c.c.c.  x 2.f.x.x.x.x.x.x.x.x.x.x.x.l.2.g X c.c.c.c.c.c.c.c.c.c.c.c.c.c.c.c.c.c.c.c.c.c.",
"c.c.c.c.c.c.c.c.c.c.c.c.c.c.c.c.c.c.c.c.c.c.d 6.x.x.x.x.x.x.x.x.x.x.x.x.x.x.x.x.x.8.h M c.c.c.c.c.c.c.c.c.c.c.c.c.c.c.c.c.c.c.c.",
"c.c.c.c.c.c.c.c.c.c.c.c.c.c.c.c.c.c.. 3 7.z.x.x.x.x.x.x.x.x.x.j.3.d.x.x.x.x.x.x.x.x.x.x.6.I & c.c.c.c.c.c.c.c.c.c.c.c.c.c.c.c.c.",
"c.c.c.c.c.c.c.c.c.c.c.c.c.c.c.c.> l 9.x.x.x.x.x.x.x.x.x.x.s.9.O.O.O.3.y.j.x.x.x.x.x.x.x.x.x.x.A a c.c.c.c.c.c.c.c.c.c.c.c.c.c.c.",
"c.c.c.c.c.c.c.c.c.c.c.c.c.c.m 9.t.x.x.x.x.x.x.x.x.x.x.*.*.$.O.O.O.O.O.O.$.*.e.x.x.x.x.x.x.x.x.x.j.0.J c.c.c.c.c.c.c.c.c.c.c.c.c.",
"c.c.c.c.c.c.c.c.c.c.c.c.c.# &.x.x.x.x.x.x.x.x.x.i.9.O.O.O.O.O.O.O.O.O.O.O.O.O.*.e.s.x.x.x.x.x.x.x.x.j.q c.c.c.c.c.c.c.c.c.c.c.c.",
"c.c.c.c.c.c.c.c.c.c.c.c.c.9.x.x.x.x.x.x.x.x.4.$.O.O.O.O.O.O.O.O.O.O.O.O.O.O.O.O.O.+.$.8.x.x.x.x.x.x.x./   c.c.c.c.c.c.c.c.c.c.c.",
"c.c.c.c.c.c.c.c.c.c.c.c.D x.x.x.x.x.x.u.4.O.O.O.O.O.O.O.O.O.O.O.O.O.O.O.O.O.O.O.O.O.O.O.O.5.e.x.x.x.x.x.n c.c.c.c.c.c.c.c.c.c.c.",
"c.c.c.c.c.c.c.c.c.c.c.# h.x.x.x.x.y.$.O.O.O.O.O.O.O.O.O.O.O.O.| ( O.O.O.O.O.O.O.O.O.O.O.O.O.O.$.x.x.x.x.g.w c.c.c.c.c.c.c.c.c.c.",
"c.c.c.c.c.c.c.c.c.c.y g.x.x.x.x.u.O.O.O.O.O.O.O.O.O.O.O.{ ( E E E E W { } O.O.O.O.O.O.O.O.O.O.O.O.s.x.x.x.w.c.c.c.c.c.c.c.c.c.c.",
"c.c.c.c.c.c.c.c.c.c.9.x.x.x.x.x.O.O.O.O.O.O.O.O.O.O.] E E E E E E E E E E Q o.O.O.O.O.O.O.O.O.O.O.w.x.x.x.x.l c.c.c.c.c.c.c.c.c.",
"c.c.c.c.c.c.c.c.c.m x.x.x.x.s.$.O.O.O.O.O.O. .` ^ E E E E E E E E E E E E E E Q ( { O.O.O.O.O.O.O.O.w.x.x.x.f.p c.c.c.c.c.c.c.c.",
"c.c.c.c.c.c.c.c.h x.x.x.x.x.w.O.O.O.O.O.O.( E E E E E E E E E E E E E E E E E E E E E  .O.O.O.O.O.O.O.i.x.x.x.x.% c.c.c.c.c.c.c.",
"c.c.c.c.c.c.c.j 7.x.x.x.x.w.O.O.O.O.O.O.{ E E E E E E E E E E E E E E E E ' ( E E E E ~ O.O.O.O.O.O.O.1.x.x.x.x.%.c.c.c.c.c.c.c.",
"c.c.c.c.c.c.c.0.x.x.x.x.y.O.O.O.O.O.O.O.E E E E E E E E E E E E E E E E E O.O.Q E E E E o.O.O.O.O.O.O.O.x.x.x.x.x.l c.c.c.c.c.c.",
"c.c.c.c.c.c.c j.x.x.x.x.1.O.O.O.O.O.O.O.E E E E E E E E E E E E E E E E E | | E E ( E E E  .O.O.O.O.O.O.x.x.x.x.x.7.= c.c.c.c.c.",
"c.c.c.c.c.V x.x.x.x.x.$.O.O.O.O.O.O.O.X.E E E E E E E E E E E E E E E E E E E / O.O.O.E E W O.O.O.O.O.O.O.O.x.x.x.x.6.c.c.c.c.c.",
"c.c.c.c.5 t.x.x.x.x.y.O.O.O.O.O.O.( E E E E E E E E E E E E E E E E E E E E E / O.O.O.! E E / O.O.O.O.O.O.O.w.x.x.x.j.u c.c.c.c.",
"c.c.c.& ..x.x.x.x.j.O.O.o.o.O.O. .E E E E E E E E E E E E E E E E E E E E E E / O.O.( E E E E } O.O.O.O.O.O.$.x.x.x.x.x.: c.c.c.",
"c.c.c.K x.x.x.x.j.-.O.O.E E O.O. .E E E E E E E E E E E E E E E E E E E E E E E Q ( E E E E E { O.O.O.O.O.O.7.x.x.x.x.x.0.c.c.c.",
"c.c.d x.x.x.x.x.w.O.O.O.Q Q O.^ E E E E E E E E E E E E E E E E E E E E E E E E E E E E E E E X.X.O.O.O.O.O.O.O.*.x.x.x.x.a c.c.",
"c.& 8.x.x.x.x.8.O.O.O.O.O.O.{ E E E E E E E E E E E E E E E E E E E E E E E E E E E E E E E E E E { O.O.O.O.O.O.+.p.x.x.x.h c.c.",
"c.,.x.x.x.x.j.*.O.O.O.O.O.X.E E E E E ( / E E E E E E E E E E E E E E E E E E E E E E E E E E E E Q O.O.O.O.O.O.O.#.x.x.x.l c.c.",
"e x.x.x.x.x.>.O.O.O.O.O.| W E E E E ( O.} E E E E E E E E E E E E E E E E E E E E E E E E E E E E E ` O.O.O.O.O.O.O.x.x.x.A c.c.",
"r x.x.x.x.=.O.O.O.O.O.O.( E E E E E E ( ^ E E E E E E E E E E E E E E E E E E E E E E E E E E E E E Q O.O.O.O.O.O.O.z.x.x.{ c.c.",
"r x.x.x.a.+.O.O.O.O.O.O.E E E E E E E E E E E E E E E E E E E E E E E E E E E E E E E E E E E E E E E O.O.O.O.O.O.O.r.x.x.s.@ c.",
"r x.x.x.p.+.O.O.O.O.O.O.E E E E E E E E E E E E E E E E E E E E E E E E E E E E E E E E E E E E E E E O.O.O.O.O.O.O.2.x.x.x.* c.",
"r x.x.x.a.+.O.O.O.O.O.O.E E E E E E E E E E E E E E E E E E E E E E E E E E E E E E E E E E E E E E E O.O.O.O.O.O.O.=.x.x.x.* c.",
"4 p.x.x.s.$.O.O.O.O.O.O.E E E E E E E E E E E E E E E E E E E E E E E E E E E E E E E E E E E E E E E O.O.O.O.O.O.O.=.x.x.x.* c.",
"< y.x.x.g.$.O.O.O.O.O.O.E E E E E E E E E E E E E E E E E E E E E E E E E E E E E E E E E E E E E E E | O.o.^  .O.O.=.x.x.x.1 c.",
"c.0.x.x.x.j.*.O.O.O.O.O.E E E E E E E E E E E E E E E E E E E E E E E E E E E E E E E E E E E E E E E { | E E E ` O.=.x.x.x.Z c.",
"c.4.x.x.x.g.*.O.O.O.O.O.E E E E E E E E E E E E E E E E E E E E E E E E E E E E E E E E E E E E E E E { o.E E E O.O.*.j.x.x.K c.",
"c.<.x.x.j.*.O.O.O.O.O.O.E E E E E E E E E E E E E E E E E E E E E E E E E E E E E E E E E E E E E E E { O.( ^ ^ O.O.$.g.x.x.&.c.",
"c.&.x.x.x.=.O.O.O.O.O.O.W E E E E E E E E E E E E E E E E E E E E E E E E E E E E E E E E E E E E E E { O.O.O.O.O.O.$.s.x.x.&.c.",
"c.&.x.x.x.=.O.O.O.O.O.O.Q E E E E E E E E E E E E E E E E E E E E E E E E E E E E E E E E E E E E E E ` O.O.O.O.O.O.O.p.x.x.&.c.",
"c.&.x.x.x.=.O.O.O.O.O.O.) E E E E E E E E E E E E E E E E E E E E E E E E E E E E E E E E E E E E E E ( O.O.O.O.O.O.O.i.x.x.&.c.",
"c.&.x.x.x.=.O.O.O.O.O.O.o.E E E E E E E E E E E E E E E E E E E E E E E E E E E E E E E E E E E E E E | O.O.O.O.O.O.O.y.x.x.7.c.",
"c.&.x.x.x.=.O.O.O.O.O.O.O.o.Q E E E E E E E E E E E E E E E E E E E E E E E E E E E E E E E E E E E X.O.O.O.O.( Q  .O.y.x.x.p.6 ",
"c.&.x.x.x.=.O.O.O.O.O.O.O.O.{ Q Q E E E E E E E E E E E E E E E E E E E E E E E E E E E E E E E E { O.O.O.O.O.^ E | O.y.x.x.x.r ",
"c.U x.x.x.=.O.O. .Q ( O.O.O.O.O.O.E E E E E E E E E E E E E E E E E E E E E E E E E E E E E E E ( O.O. .E ( O.O.| O.O.y.x.x.x.r ",
"c.; w.x.x.x.2.O.{ E / O.O.O.O.O.| E E E E E E E E E E E E E E E E E E E E E E Q ( E E E E E E { O.O.O.` E E O.O.O.O.O.e.x.x.x.r ",
"c.c.s x.x.x.h.$.O.` O.O.O.O.O.O. .E E E E E E E E E E E E E E E E E E E E E E / O.{ E E Q O.O.O.O.O.O.O.` | O.O.O.O.*.j.x.x.2.- ",
"c.c.c.Y x.x.x.w.O.O.O.} Q ! | O.O.( E E E E E E E E E E E E E E E E E E E E E ~ | ^ E E Q O.O.O.O.O.O.O.O.O.O.O.O.2.x.x.x.[ c.c.",
"c.c.c.& y.x.x.x.q.O.X.E E E / O.O.O.( E E E E E E E E E _ X.W E E E E E } { E E E E E E ! O.O.O.O.O.O.O.O.O.O.O.*.x.x.x.p.c.c.c.",
"c.c.c.c.i p.x.x.h.3.O.^ E E ( O.O.O. .( Q E E E E E E E } O.^ E E E E E  .X.W E E E E ~ O.O.O.O.O.O.O.O.O.O.O.>.w.x.x...k c.c.c.",
"c.c.c.c.c.! x.x.x.x.O.O.( ( | O.O.O.O.O.O.O.( E E E E E E E E E E E E E E ^ E E E E E O.O.O.O.O.O.O.O.O.O.O.+.a.x.x.f.8 c.c.c.c.",
"c.c.c.c.c.c.Q x.x.x.w.O.O.O.O.O.O.O.O.O.O.O.O.O.} { ( E E E E E E E E E E W Q / ` { O.O.O.O.O.O.O.O.O.O.O.O.u.x.x.g.B c.c.c.c.c.",
"c.c.c.c.c.c.c.9.x.x.x.4.O.O.O.O.O.O.O.O.O.O.O.O.O.O.O.O.O.{ E E E Q | O.O.O.O.O.O.O.O.O.O.O.O.O.O.O.O.O.O.r.x.x.j.f c.c.c.c.c.c.",
"c.c.c.c.c.c.c.c x.x.x.x.1.O.O.O.O.O.O.O.O.O.O.O.O.O.O.O.O.O.O.O.O.O.O.O.O.O.O.O.O.O.O.O.O.O.O.O.O.O.O.O.e.x.x.x.R c.c.c.c.c.c.c.",
"c.c.c.c.c.c.c.c.z x.x.x.s.O.O.O.O.O.O.O.O.O.O.O.O.O.O.O.O.O.O.O.O.O.O.O.O.O.O.O.O.O.O.O.O.O.O.O.O.O.O.w.x.x.x.l c.c.c.c.c.c.c.c.",
"c.c.c.c.c.c.c.c.c.P x.x.x.r.O.O.O.O.O.O.O.O.O.O.O.O.O.O.O.O.O.O.O.O.O.O.O.O.O.O.O.O.O.O.O.O.O.O.O.O.9.k.x.x.Z + c.c.c.c.c.c.c.c.",
"c.c.c.c.c.c.c.c.c.O p.x.x.x.9.O.O.O.O.O.O.O.O.O.O.O.O.O.O.O.O.O.O.O.O.O.O.O.O.O.O.O.O.O.O.O.O.O.O.5.x.x.x.7.O c.c.c.c.c.c.c.c.c.",
"c.c.c.c.c.c.c.c.c.c.9 g.x.x.h.$.O.O.O.O.O.O.O.O.O.O.O.O.O.O.O.O.O.O.O.O.O.O.O.O.O.O.O.O.O.O.O.O.$.j.x.x.3., c.c.c.c.c.c.c.c.c.c.",
"c.c.c.c.c.c.c.c.c.c.c.T h.x.x.x.x.>.*.*.O.O.O.O.O.O.O.O.O.O.O.O.O.O.O.O.O.O.O.O.O.O.O.O.O.O.O.*.x.x.x.7.% c.c.c.c.c.c.c.c.c.c.c.",
"c.c.c.c.c.c.c.c.c.c.c.c.L x.x.x.x.x.x.x.i.t.=.O.O.3.>.O.O.O.O.O.O.O.O.O.O.O.O.O.O.O.O.O.O.O.O.j.x.x.h.0 c.c.c.c.c.c.c.c.c.c.c.c.",
"c.c.c.c.c.c.c.c.c.c.c.c.c.G 6.p.x.x.x.x.x.x.x.x.j.x.5.O.O.O.O.O.O.O.O.O.O.O.O.O.$.=.=.1.a.x.x.x.x.y.% c.c.c.c.c.c.c.c.c.c.c.c.c.",
"c.c.c.c.c.c.c.c.c.c.c.c.c.c.c.c.S g X.x.x.x.x.x.x.x.h.y.y.1.O.O.O.O.*.9.y.y.y.i.s.x.x.x.x.x.x.x.x.f c.c.c.c.c.c.c.c.c.c.c.c.c.c.",
"c.c.c.c.c.c.c.c.c.c.c.c.c.c.c.c.c.c.c.& K ,.u.x.x.x.x.x.x.x.x.r.j.x.x.x.x.x.x.x.x.x.x.x.x.h.0.,.u c.c.c.c.c.c.c.c.c.c.c.c.c.c.c.",
"c.c.c.c.c.c.c.c.c.c.c.c.c.c.c.c.c.c.c.c.c.c.c.t m 3.x.x.x.x.x.x.x.x.x.x.x.x.x.g.:.I b p F N c.c.c.c.c.c.c.c.c.c.c.c.c.c.c.c.c.c.",
"c.c.c.c.c.c.c.c.c.c.c.c.c.c.c.c.c.c.c.c.c.c.c.c.c.  * H &.w.x.x.s.9.;.&.R 2 * @ o c.c.c.c.c.c.c.c.c.c.c.c.c.c.c.c.c.c.c.c.c.c.c.",
"c.c.c.c.c.c.c.c.c.c.c.c.c.c.c.c.c.c.c.c.c.c.c.c.c.c.c.c.c.c.r r 5 c.c.c.c.c.c.c.c.c.c.c.c.c.c.c.c.c.c.c.c.c.c.c.c.c.c.c.c.c.c.c."
};
