/* XPM */
static char *result[] = {
/* columns rows colors chars-per-pixel */
"64 64 149 2 ",
"   c #5B4231",
".  c #5A4232",
"X  c #5B4333",
"o  c #5C4333",
"O  c #5C4433",
"+  c #5A4134",
"@  c #5A4234",
"#  c #5A4235",
"$  c #5C4434",
"%  c #5D4534",
"&  c #5C4435",
"*  c #5D4435",
"=  c #5C4535",
"-  c #5D4535",
";  c #5F4534",
":  c #5E4535",
">  c #5E4635",
",  c #5F4635",
"<  c #5F4636",
"1  c #614836",
"2  c #614837",
"3  c #624836",
"4  c #624837",
"5  c #634937",
"6  c #644937",
"7  c #634938",
"8  c #644938",
"9  c #644A38",
"0  c #644A39",
"q  c #654A39",
"w  c #654B39",
"e  c #664B38",
"r  c #664B39",
"t  c #674B39",
"y  c #664B3A",
"u  c #674B3B",
"i  c #674C39",
"p  c #674C3A",
"a  c #694C3A",
"s  c #684D3A",
"d  c #684C3B",
"f  c #694D3B",
"g  c #6A4E3B",
"h  c #694E3C",
"j  c #6A4E3C",
"k  c #6E4F3C",
"l  c #6B503C",
"z  c #6D503C",
"x  c #6D503D",
"c  c #6D513E",
"v  c #6E513E",
"b  c #6F523E",
"n  c #70523E",
"m  c #70523F",
"M  c #71523F",
"N  c #71543F",
"B  c #725440",
"V  c #735540",
"C  c #735541",
"Z  c #755541",
"A  c #755641",
"S  c #755642",
"D  c #765642",
"F  c #765742",
"G  c #775742",
"H  c #785843",
"J  c #795843",
"K  c #795943",
"L  c #795944",
"P  c #7A5944",
"I  c #7B5B45",
"U  c #7C5C45",
"Y  c #7D5C46",
"T  c #7F5D47",
"R  c #805E47",
"E  c #805E48",
"W  c #815E48",
"Q  c #805F48",
"!  c #815F48",
"~  c #825E48",
"^  c #825F48",
"/  c #826049",
"(  c #836049",
")  c #846049",
"_  c #846149",
"`  c #856149",
"'  c #856249",
"]  c #84614A",
"[  c #85614A",
"{  c #85624A",
"}  c #86624A",
"|  c #87624A",
" . c #86634A",
".. c #87634A",
"X. c #86624B",
"o. c #86634B",
"O. c #87634B",
"+. c #87634C",
"@. c #88634B",
"#. c #88644B",
"$. c #89644B",
"%. c #88644C",
"&. c #89644C",
"*. c #89654C",
"=. c #8A654C",
"-. c #8B654C",
";. c #8A654D",
":. c #8B664C",
">. c #8A664D",
",. c #8B664D",
"<. c #8B664E",
"1. c #8C664D",
"2. c #8C674D",
"3. c #8D674D",
"4. c #8C674E",
"5. c #8D674E",
"6. c #8E674E",
"7. c #8D684F",
"8. c #8E684E",
"9. c #8E684F",
"0. c #8F684F",
"q. c #8F694F",
"w. c #90694F",
"e. c #8F6950",
"r. c #906950",
"t. c #906A50",
"y. c #916A50",
"u. c #916B50",
"i. c #916A51",
"p. c #926B51",
"a. c #936B51",
"s. c #936C51",
"d. c #936C52",
"f. c #946C52",
"g. c #946D52",
"h. c #956D52",
"j. c #956D53",
"k. c #966D52",
"l. c #966D53",
"z. c #956E53",
"x. c #966E53",
"c. c #976E54",
"v. c #976F54",
"b. c #986F54",
"n. c #986F55",
"m. c #987054",
"M. c #987055",
"N. c #997055",
"B. c None",
/* pixels */
"B.B.B.B.B.B.B.B.B.B.B.B.B.B.B.B.B.B.B.B.B.B.B.B.B.B.B.B.B.B.B.B.t j 8 B.B.B.B.B.B.B.B.B.B.B.B.B.B.B.B.B.B.B.B.B.B.B.B.B.B.B.B.B.",
"B.B.B.B.B.B.B.B.B.B.B.B.B.B.B.B.B.B.B.B.B.B.B.B.B.B.B.B.B.B.4 ( z.N.e.K = B.B.B.B.B.B.B.B.B.B.B.B.B.B.B.B.B.B.B.B.B.B.B.B.B.B.B.",
"B.B.B.B.B.B.B.B.B.B.B.B.B.B.B.B.B.B.B.B.B.B.B.B.B.B.B.B.n B N.N.N.N.N.N.x.m e B.B.B.B.B.B.B.B.B.B.B.B.B.B.B.B.B.B.B.B.B.B.B.B.B.",
"B.B.B.B.B.B.B.B.B.B.B.B.B.B.B.B.B.B.B.B.B.B.B.B.B.@ 5 W v.N.N.N.N.N.N.N.N.N.N.,.b B.B.B.B.B.B.B.B.B.B.B.B.B.B.B.B.B.B.B.B.B.B.B.",
"B.B.B.B.B.B.B.B.B.B.B.B.B.B.B.B.B.B.B.B.B.B.B.B.t U N.N.N.N.N.N.N.N.N.N.N.N.N.N.N.7.w 4 B.B.B.B.B.B.B.B.B.B.B.B.B.B.B.B.B.B.B.B.",
"B.B.B.B.B.B.B.B.B.B.B.B.B.B.B.B.B.B.B.B.B.O D Q f.N.N.N.N.N.N.N.b.p.y.N.N.N.N.N.N.N.N.i.O.z   B.B.B.B.B.B.B.B.B.B.B.B.B.B.B.B.B.",
"B.B.B.B.B.B.B.B.B.B.B.B.B.B.B.B.B.B.B.B.: [ N.N.N.N.N.N.N.N.N.b.=.=.=.=.a.N.N.N.N.N.N.N.N.N.5., B.B.B.B.B.B.B.B.B.B.B.B.B.B.B.B.",
"B.B.B.B.B.B.B.B.B.B.B.B.B.B.B.B.B.* %.T j.N.N.N.N.N.N.N.v.p.0.=.=.=.=.=.=.5.y.h.N.N.N.N.N.N.N.x.! 6.d B.B.B.B.B.B.B.B.B.B.B.B.B.",
"B.B.B.B.B.B.B.B.B.B.B.B.B.B.B.B.o j.N.N.N.N.N.N.N.N.N.N.=.=.=.=.=.=.=.=.=.=.=.=.=.l.N.N.N.N.N.N.N.N.N.} X B.B.B.B.B.B.B.B.B.B.B.",
"B.B.B.B.B.B.B.B.B.B.B.B.B.B.s T c.N.N.N.N.N.N.N.N.v.N.q.=.=.=.=.=.=.=.=.=.=.=.=.=.=.w.d.N.N.N.N.N.N.N.N.q.X B.B.B.B.B.B.B.B.B.B.",
"B.B.B.B.B.B.B.B.B.B.B.B.B.b x.N.N.N.N.N.N.N.N.a.,.-.q.,.=.=.=.=.=.=.=.=.=.=.=.=.=.=.=.=.:.6.b.N.N.N.N.N.N.y.B.B.B.B.B.B.B.B.B.B.",
"B.B.B.B.B.B.B.B.B.B.B.B.N N.N.N.N.N.N.N.N.a.5.=.=.=.=.=.=.=.=.=.=.=.=.=.=.=.=.=.=.=.=.=.=.=.=.y.j.N.N.N.N.v.G B.B.B.B.B.B.B.B.B.",
"B.B.B.B.B.B.B.B.B.B.B.y f.N.N.N.N.N.N.d.1.=.=.=.=.=.=.=.=.=.=.$.=.=.=.o.#.=.=.=.=.=.=.=.=.=.=.=.-.5.h.N.N.N.{ + B.B.B.B.B.B.B.B.",
"B.B.B.B.B.B.B.B.B.B.n v.N.N.N.N.N.p.,.=.=.=.=.=.=.=.=.=.*...( ( { $.#.( ( [ @.*.=.=.=.=.=.=.=.=.=.=.=.j.N.N.N.C B.B.B.B.B.B.B.B.",
"B.B.B.B.B.B.B.B.B.u j.N.N.N.N.N.u.=.=.=.=.=.=.=.=.=.=.O._ ( ( ( ( ) ( ( ( ( ( _ $.=.=.=.=.=.=.=.=.=.=.2.N.N.N.M.S B.B.B.B.B.B.B.",
"B.B.B.B.B.B.B.B.j g.N.N.N.N.N.p.=.=.=.=.=.=.=.=.&...( ( ( ( ( ( ( ( ( ( ( ( ( ( ( ( ..#.=.=.=.=.=.=.=.=.s.N.N.N.R B.B.B.B.B.B.B.",
"B.B.B.B.B.B.B.M x.N.N.N.N.N.b.=.=.=.=.=.=.=.=.} _ ( ( ( ( ( ( ( ( ( ( ( ( ( ( ( ( ( ( ( ] =.=.=.=.=.=.=.1.N.N.N.j.> B.B.B.B.B.B.",
"B.B.B.B.B.B.6 / N.N.N.N.N.j.h.=.=.=.=.=.*.#._ ( ( ( ( ( ( ( ( ( ( ( ( ( ( ( ( ( ( ( ( ( ( | =.=.&.#.*.=.=.w.N.N.N.s.9 B.B.B.B.B.",
"B.B.B.B.B.v a.N.N.N.N.N.r.=.=.=.=.=.=.=.} ( ( ( ( ( ( ( ( ( ( ( ( ( ( ( ( ( ( ( ( ( ( ( ( ( $.=.{ ( O.=.=.=.f.N.N.N.Y B.B.B.B.B.",
"B.B.B.B.B.y.N.N.N.N.N.f.=.=.=.=.=.=.=.@.( ( ( ( ( ( ( ( ( ( ( ( ( ( ( ( ( ( ( ( _ } ] ( ( ( ) =.O.) O.=.=.=.y.N.N.N.N.B.B.B.B.B.",
"B.B.B.h +.N.N.N.N.N.r.:.=.=.=.=.=.=.} ( ( ( ( ( ( ( ( ( ( ( ( ( ( ( ( ( ( ( ( [ =.=.=.| ( ( ( O.=.$.=.=.=.=.=.y.N.N.N.X.B.B.B.B.",
"B.B.B.5.N.N.N.N.N.a.=.=.=.=.=.=.=. .( ( ( ( ( ( ( ( ( ( ( ( ( ( ( ( ( ( ( ( ( _ =.=.=.$.( ( ( _ *.=.=.=.X.&.=.=.b.N.N.N.x B.B.B.",
"B.1 X.N.N.N.N.N.y.1.=.=.=.=.=.=.O.( ( ( ( ( ( ( ( ( ( ( ( ( ( ( ( ( ( ( ( ( ( ( O.=.=.[ ( ( ( ( [ =.$.{ ( ( @.=.y.N.N.N.e.q B.B.",
"; ,.N.N.N.N.N.y.=.=.=.=.=.=.=. .( ( ( ( ( ( ( ( ( ( ( ( ( ( ( ( ( ( ( ( ( ( ( ( ( ( ( ( ( ( ( ( ( $.=.( ( ( O.=.=.b.N.N.N.B B.B.",
"j N.N.N.N.N.c.5.=.=.=.=.=.=.| ( ( ( ( ( ( ( ( ( ( ( ( ( ( ( ( ( ( ( ( ( ( ( ( ( ( ( ( ( ( ( ( ( ( [ =.{ ( ( O.=.=.8.N.N.N.j.> B.",
"j N.N.N.N.t.=.=.=.=.=.=.=...( ( ( ( ( ( ( ( ( ( ( ( ( ( ( ( ( ( ( ( ( ( ( ( ( ( ( ( ( ( ( ( ( ( ( ( @.=.=.=.=.=.=.=.t.N.N.N.O.B.",
"f M.N.N.N.q.=.=.=.=.=.=.| ( ( ( ( ( ( ( ( ( ( ( ( ( ( ( ( ( ( ( ( ( ( ( ( ( ( ( ( ( ( ( ( ( ( ( ( ( ( =.=.=.=.=.=.=.,.b.N.N.m.g ",
"r g.N.N.N.t.=.=.=.=.=.=._ ( ( ( ( ( ( ( ( ( ( ( ( ( ( ( ( ( ( ( ( ( ( ( ( ( ( ( ( ( ( ( ( ( ( ( ( ( ( _ =.=.=.=.=.=.=.k.N.N.N.j ",
"B.r.N.N.N.t.=.=.=.=.=.=._ ( ( ( ( ( ( ( ( ( ( ( ( ( ( ( ( ( ( ( ( ( ( ( ( ( ( ( ( ( ( ( ( ( ( ( ( ( ( _ =.=.=.=.=.=.=.=.N.N.N.j ",
"B.4.N.N.N.t.=.=.=.=.=.=._ ( ( ( ( ( ( ( ( ( ( ( ( ( ( ( ( ( ( ( ( ( ( ( ( ( ( ( ( ( ( ( ( ( ( ( ( ( ( _ =.=.=.=.=.=.=.=.N.N.N.j ",
"B.*.N.N.N.t.=.=.=.=.=.=.' ( ( ) { [ ( ( ( ( ( ( ( ( ( ( ( ( ( ( ( ( ( ( ( ( ( ( ( ( ( ( ( ( ( ( ( ( ( _ =.=.=.=.=.=.=.=.N.N.N.j ",
"B.O.N.N.N.t.=.=.=.=.=.=.} ( ( [ =.&.) ( ( ( ( ( ( ( ( ( ( ( ( ( ( ( ( ( ( ( ( ( ( ( ( ( ( ( ( ( ( ( } &.=.=.=.=.=.=.=.,.N.N.j.i ",
"B.O.N.N.N.y.=.=.=.=.=.=.O.( ( ] @.O.( ( ( ( ( ( ( ( ( ( ( ( ( ( ( ( ( ( ( ( ( ( ( ( ( ( ( ( ( ( ( _ &.=.=.=.=.=.=.=.=.8.N.N.d.p ",
"B.O.N.N.N.f.=.=.=.=.=.=.=.( ( ( ( ( ( ( ] ( ( ( ( ( ( ( ( ( ( ( ( ( ( ( ( ( ( ( ( ( ( ( ( ( ( ( ( ( _ =.=.=.=.=.=.=.=.r.N.N.r.B.",
"B.O.N.N.N.h.=.=.=.=.=.=.=.( ( ( ( ( ( =.&.( ( ( ( ( ( ( ( ( ( ( ( ( ( ( ( ( ( ( ( ( ( ( ( ( ( ( ( ( ( } =.=.=.=.=.=.=.p.N.N.<.B.",
"B.O.N.N.N.b.=.=.=.=.=.=.=.( ( ( ( ( ( #.O.( ( ( ( ( ( ( ( ( ( ( ( ( ( ( ( ( ( ( ( ( ( ( ( ( ( ( ( ( ( _ =.=.=.=.=.=.=.l.N.N.%.B.",
"B.R N.N.N.N.5.:.=.=.=.=.=.( ( ( ( ( ( ( ( ( ( ( ( ( ( ( ( ( ( ( ( ( ( ( ( ( ( ( ( ( ( ( ( ( ( ( ( ( ( } =.=.=.=.=.=.=.v.N.N.O.B.",
"B.K N.N.N.N.N.y.=.=.=.=.=.( ( ( ( ( ( ( ( ( ( ( ( ( ( ( ( ( ( ( ( ( ( ( ( ( ( ( ( ( ( ( ( ( ( } _ ( ( O.=.=.=.=.=.=.=.v.N.N.O.B.",
"B.J N.N.N.N.l.=.=.=.=.=.=.( ( ( ( ( ( ( ( ( ( ( ( ( ( ( ( ( ( ( ( ( ( ( ( ( ( ( ( ( ( ( ( ( { =.=.( ( @.=.=.=.=.=.=.=.v.N.N.O.B.",
"B.l N.N.N.N.=.=.=.=.=.=.=.} ( ( ( ( ( ( ( ( ( ( ( ( ( ( ( ( ( ( ( ( ( ( ( ( ( ( ( ( ( ( ( ( _ $.} ( ( =.=.=.=.=.=.=.=.v.N.N.O.B.",
"B.* N.N.N.N.=.=.=.=.=.=.=.$._ ( ( ( ( ( ( ( ( ( ( ( ( ( ( ( ( ( ( ( ( ( ( ( ( ( ( ( ( ( ( ( ( ( ( ( ( =.=.#.@.=.=.=.=.v.N.N.O.B.",
"B.* N.N.N.N.=.=.=.=.=.=.=.=...( ( ( ( O.O.( ( ( ( ( ( ( ( ( ( ( ( ( ( ( ( ( ( ( ( ( ( ( ( ( ( ( ( ( ( =.=.( ( =.=.=.=.v.N.N.{ B.",
"B.* N.N.N.N.5.=.=.=.=.=.=.=.=.( ( ( ( =.=.( ( ( ( ( ( ( ( ( ( ( ( ( ( ( ( ( ( ( ( ( ( ( ( ( ( ( ( ( ..=.=.} ( =.=.=.=.v.N.N.I B.",
"B.* N.N.N.N.f.=.=.O.( { =.=.=.#.( ( ( { ] ( ( ( ( ( ( ( ( ( ( ( ( ( ( ( ( ( ( ( ( ( ( ( ( ( ( ( ( _ *.=.=.=.=.=.=.=.=.v.N.N.A B.",
"B.X _ N.N.N.N.5.=.O.( ] =.=.=.=.[ ( ( ( ( ( ( ( ( ( ( ( ( ( ( ( ( ( ( ( ( ( ( ( ( ( ( ( ( ( ( ( ( ..=.=.=.=.=.=.=.=.=.v.N.N.F B.",
"B.B.a f.N.N.N.a.=.=.} =.=.=.=.=.*.( ( ( ( ( ( ( ( ( ( ( ( ( ( ( ( ( ( ( ( ( ( ( ( ( ( ( ( ( ( =.=.=.=.=.=.=.=.=.=.=.=.v.N.N.i B.",
"B.B.B.] N.N.N.M.=.=.=.=.=.=.=.=.=...( ( ( ( ( ( ( ( ( ( ( ( ( ( ( ( ( ( ( ( ( ( ( ( ( ( ( ( ( =.=.=.=.=.=.=.=.=.=.=.0.N.N.N.* B.",
"B.B.B.= 9.N.N.N.b.,.=.=.=.=.=.=.=.&._ ( ( ( ( ( ( ( ( ( ( ( ( ( ( ( ( ( ( ( ( ( ( ( ( ( ( ( ( =.=.=.=.=.=.=.=.=.=.=.f.N.N.^ B.B.",
"B.B.B.B.p N.N.N.N.y.=.=.=.=.=.=.=.=.&.( ( ( ( ( ( ( ( ( ( ( ( ( ( ( ( ( ( ( ( ( ( ( ( ( ( ( ( =.=.=.=.=.=.=.=.4.4.h.N.N.j.k B.B.",
"B.B.B.B.B.q.N.N.N.x.-.=.=.=.=.=.=.=.=.} ( ( ( ( ( ( ( ( ( ( ( ( ( ( ( ( ( ( ( ( ( ( ( ( ( ( } =.=.=.=.=.=.=.=.N.N.N.N.N.Y B.B.B.",
"B.B.B.B.B.f N.N.N.N.h.=.=.=.=.=.=.=.=.=.#.#._ ( { #.` ( ( ( ( ( ( ( ( ( ( ( ( ( ( ( ( ( ( [ =.=.=.=.=.=.=.=.=.N.N.N.N.,.3 B.B.B.",
"B.B.B.B.B.B.Y N.N.N.N.5.=.=.=.=.=.=.=.=.=.=.=.=.=.=.O.( ( ( ( ( ( ( ( ( ( ( ( ( ( ( ( ( ( @.=.=.=.=.=.=.=.=.=.N.N.N.N.4 B.B.B.B.",
"B.B.B.B.B.B.O *.N.N.N.l.:.=.=.=.=.=.=.=.=.=.=.=.=.=.&.@._ ( ( ( ( ( ( ( ( ( ( ( ( _ @.@.#.=.=.=.=.=.=.=.=.=.=.N.N.N.&.B.B.B.B.B.",
"B.B.B.B.B.B.B.L N.N.N.N.5.=.=.=.=.=.=.=.=.=.=.=.=.=.=.=.=.=.=.} _ ) _ ] ] &.=.=.=.=.=.=.=.=.=.=.=.=.=.=.=.=.p.N.N.N.p B.B.B.B.B.",
"B.B.B.B.B.B.B.2 l.N.N.N.c.=.=.=.=.=.=.=.=.=.=.=.=.=.=.=.=.=.=.=.=.$.=.=.=.=.=.=.=.=.=.=.=.=.=.=.=.=.=.=.=.-.x.N.N.S B.B.B.B.B.B.",
"B.B.B.B.B.B.B.B.$ l.N.N.N.f.=.=.=.=.=.=.=.=.=.*.=.=.=.=.=.*.=.=.=.=.=.=.=.=.=.=.=.=.=.=.=.=.=.=.=.=.=.=.=.w.N.N.;.% B.B.B.B.B.B.",
"B.B.B.B.B.B.B.B.B.H N.N.N.M.5.=.=.=.=.=.=.=.O._ O.=.=.=.@._ $.=.=.=.@.} =.=.=.=.=.=.=.=.=.=.=.=.=.=.=.=.q.N.N.N.[ B.B.B.B.B.B.B.",
"B.B.B.B.B.B.B.B.B.B.l.N.N.N.c.=.=.=.=.=.=.=.[ ( O.=.=.=.[ ( { =.=.O.( ( ) =.=.=.=.=.=.=.=.=.=.=.=.=.=.=.g.N.N.j.B.B.B.B.B.B.B.B.",
"B.B.B.B.B.B.B.B.B.B.Z N.N.N.N.p.8.=.=.=.=.=.=.O.=.=.=.=.=.@.=.=.=.} ( ( ) =.=.=.=.=.=.=.=.=.=.=.=.=.=.4.N.N.g.- B.B.B.B.B.B.B.B.",
"B.B.B.B.B.B.B.B.B.B.. o.N.N.N.N.N.N.p.=.=.=.=.=.=.=.=.=.=.=.=.=.=.=.( ( ) =.=.=.=.=.=.=.=.=.=.=.=.=.=.N.N.N.H B.B.B.B.B.B.B.B.B.",
"B.B.B.B.B.B.B.B.B.B.B.c j.N.N.N.N.N.N.N.x.y.y.q.=.=.=.=.=.=.=.=.=.=.$.$.&.=.=.=.=.=.=.y.p.=.=.=.=.,.p.N.N.x.g B.B.B.B.B.B.B.B.B.",
"B.B.B.B.B.B.B.B.B.B.B.B.< E N.N.N.N.N.N.N.N.N.N.b.f.>.=.=.=.=.=.=.=.=.=.=.=.=.=.=.=.=.N.N.g.w.b.b.n.N.N.N.P B.B.B.B.B.B.B.B.B.B.",
"B.B.B.B.B.B.B.B.B.B.B.B.B.# & V ~ ;.j.N.N.N.N.N.N.N.N.l.r.0.,.=.=.=.=.=.=.=.:.3.0.r.b.N.N.N.N.N.N.N.N.N.,.O B.B.B.B.B.B.B.B.B.B.",
"B.B.B.B.B.B.B.B.B.B.B.B.B.B.B.B.B.B.7 0 ! N.N.N.N.N.N.N.N.N.b.v.g.,.8.x.v.v.b.b.N.N.N.N.N.N.N.N.N.N.N.g.r B.B.B.B.B.B.B.B.B.B.B."
};
