/* XPM */
static char *result[] = {
/* columns rows colors chars-per-pixel */
"64 64 119 2 ",
"   c #4C5154",
".  c #4F5953",
"X  c #515D53",
"o  c #5B744F",
"O  c #5F7B4F",
"+  c #546452",
"@  c #576A51",
"#  c #596E51",
"$  c #5C7550",
"%  c #5D7850",
"&  c #607F4F",
"*  c #DE6532",
"=  c #D66E34",
"-  c #DA6933",
";  c #CD7435",
":  c #C87937",
">  c #D07234",
",  c #E0602E",
"<  c #E26231",
"1  c #E2683A",
"2  c #E26D41",
"3  c #E27D58",
"4  c #62824E",
"5  c #668C4E",
"6  c #688F4E",
"7  c #69934D",
"8  c #6D9C4C",
"9  c #6FA04C",
"0  c #71A44B",
"q  c #75AD4A",
"w  c #7BBD47",
"e  c #76B04A",
"r  c #79B54A",
"t  c #7DBF49",
"y  c #7EC04B",
"u  c #B48C3C",
"i  c #8EC03F",
"p  c #9FC236",
"a  c #92C13D",
"s  c #9AC138",
"d  c #BBC525",
"f  c #B2C42A",
"g  c #AAC330",
"h  c #CAC61E",
"j  c #D5C717",
"k  c #DDC813",
"l  c #E4C90E",
"z  c #ECCA0A",
"x  c #F4CB06",
"c  c #FFCC00",
"v  c #E0C911",
"b  c #9E9F41",
"n  c #A19D40",
"m  c #8EAF45",
"M  c #9AA342",
"N  c #87B647",
"B  c #83BF45",
"V  c #82BB48",
"C  c #E08563",
"Z  c #E28E6F",
"A  c #89C042",
"S  c #80C04E",
"D  c #82C253",
"F  c #89C255",
"G  c #86C45A",
"H  c #8AC45D",
"J  c #92C45E",
"K  c #8BC662",
"L  c #8EC868",
"P  c #97C563",
"I  c #99C664",
"U  c #9EC769",
"Y  c #91C96C",
"T  c #94CB72",
"R  c #97CC78",
"E  c #9ACE7D",
"W  c #AACB76",
"Q  c #AECC79",
"!  c #B2CD7D",
"~  c #E2A28C",
"^  c #9DCF83",
"/  c #9FD186",
"(  c #B6CE81",
")  c #A3D28C",
"_  c #BFD08A",
"`  c #A7D493",
"'  c #ABD79A",
"]  c #ADD89E",
"[  c #AFD9A1",
"{  c #B1D9A5",
"}  c #B4DBAB",
"|  c #BADEB4",
" . c #BCDFB8",
".. c #BFE1BD",
"X. c #CAD394",
"o. c #CED499",
"O. c #D2D59D",
"+. c #D7D6A1",
"@. c #DCD8A7",
"#. c #E4DAAE",
"$. c #E6DAB0",
"%. c #ECDCB6",
"&. c #C0E1BF",
"*. c #E3D6D6",
"=. c #E3D8D7",
"-. c #C3E3C4",
";. c #C7E5CB",
":. c #C8E6CE",
">. c #CBE7D2",
",. c #CDE8D6",
"<. c #CEE9D9",
"1. c #D1EADD",
"2. c #D5ECE4",
"3. c #D7EDE8",
"4. c #D9EEEC",
"5. c #DBEFF0",
"6. c #DEF1F4",
"7. c #E4F4FF",
"8. c None",
/* pixels */
"8.8.8.8.8.8.8.8.8.8.8.8.8.8.8.8.8.8.8.8.8.8.8.8.8.8.8.8.8.8.8.8.8.8.8.8.8.8.8.8.8.8.8.8.8.8.8.8.8.8.8.8.8.8.8.8.8.8.8.8.8.8.8.8.",
"8.8.8.8.8.8.8.8.8.8.8.8.8.8.8.8.8.8.8.8.8.8.8.8.8.8.8.8.8.8.8.8.8.8.8.8.8.8.8.8.8.8.8.8.8.8.8.8.8.8.8.8.8.8.8.8.8.8.8.8.8.8.8.8.",
"8.8.8.8.8.8.8.8.8.8.8.8.8.8.8.8.8.8.8.8.8.8.8.8.8.8.8.8.8.8.8.8.8.8.8.8.8.8.8.8.8.8.8.8.8.8.8.8.8.8.8.8.8.8.8.8.8.8.8.8.8.8.8.8.",
"8.8.8.8.8.8.8.8.8.8.8.8.8.8.8.8.8.8.8.8.8.8.8.8.8.8.8.8.8.8.8.8.8.8.8.8.8.8.8.8.8.8.8.8.8.8.y 8.8.8.8.8.8.8.8.8.8.8.8.8.8.8.8.8.",
"8.8.8.8.8.8.8.8.8.8.8.8.8.8.8.8.8.8.8.8.8.8.8.8.8.8.8.8.8.8.8.8.8.8.8.8.8.8.8.8.8.8.7.7.7.:.y y 8.8.8.8.8.8.8.8.8.8.8.8.8.8.8.8.",
"8.8.8.8.8.8.8.8.8.8.8.8.8.8.8.8.8.8.8.8.8.8.8.8.8.8.7.7.7.7.7.7.8.8.8.8.8.t ,.7.7.7.7.7.7.6.y y y y 8.8.8.8.8.8.8.8.8.8.8.8.8.8.",
"8.8.8.8.8.8.8.8.8.8.8.8.8.8.8.8.8.8.8.8.8.8.8.8.7.7.7.7.7.7.7.*.C < < b t t { 7.7.7.7.7.7.7.H y y y w 8.8.8.8.8.8.8.8.8.8.8.8.8.",
"8.8.8.8.8.8.8.8.8.8.8.8.8.8.8.8.8.8.8.8.8.8.8.8.8.7.7.=.~ C 1 , < < , - V t Y 7.7.7.7.7.7.7.&.y y w y 8.8.8.8.8.8.8.8.8.8.8.8.8.",
"8.8.8.8.8.8.8.8.8.8.8.8.8.8.8.8.8.8.8.8.8.8.8.8., Z 2 < < < < < < < < < m y y ,.7.7.7.7.7.7.5.y t t t t 8.8.8.8.8.8.8.8.8.8.8.8.",
"8.8.8.8.8.8.8.8.8.8.8.8.8.8.8.8.8.8.8.t t t y u < < < < < < < < < < < < ; y y Y 7.7.7.7.7.6.:./ t t t t 8.8.8.8.8.8.8.8.8.8.8.8.",
"8.8.8.8.8.8.8.8.8.8.8.8.8.8.8.w t y t t t t t V < < < < < < < < < < < < * m y y 4.1.-.` Y y y w t t t t 8.8.8.8.8.8.8.8.8.8.8.8.",
"8.8.8.8.8.8.8.8.8.8.8.w t t y t t t t y t t t t : < < < < < < , < < < - : u t y y y y y B y w y t t t t t 8.8.8.8.8.8.8.8.8.8.8.",
"8.8.8.8.8.8.8.t t y t t t t t t t t t y t y t t M < < < , * = > u M t t t t y w y y w y y w y w t t t t y 8.8.8.8.8.8.8.8.8.8.8.",
"8.8.t t t t t y t t t t t t t t t y R &.2.Y t t t M N V t t y t y V t y t t t y y w y y w y w y t t t t t 8.8.8.8.8.8.8.8.8.8.8.",
"8.8.t t t t t t t t t t y Y  .>.y S 7.7.7.-.t t t t y t y y y y T ..L y t t t w y y w w y w y w t t t t t w 8.8.8.8.8.8.8.8.8.8.",
"8.8.t t t t t y y y y ..6.7.7.7.G w 7.7.7.3.t t t t t y H ) -.6.7.7.-.y t t t y w y y y w y w y t t t t t y 8.8.8.8.8.8.8.8.8.8.",
"8.8.t t t ) ..2.7.-.y { 7.7.7.7.| y 2.7.7.6.t t t S } 1.7.7.7.7.7.7.7.S y w w y w B w y t t t t t t t t t t 8.8.8.8.8.8.8.8.8.8.",
"8.t y t t 2.7.7.7.7.S S 7.7.7.7.7.D -.7.7.7.y t t y 7.7.7.7.7.7.7.7.7.E w y y y y y y y t t t t t t t t t t 8.8.8.8.8.8.8.8.8.8.",
"8.t t t t &.7.7.7.7.D t ;.7.7.7.7.Y ' 7.7.7.E y t t 5.7.7.7.7.7.7.7.7.3.y y y w y w S w t t t t t t t t t t 8.8.8.8.8.8.8.8.8.8.",
"8.t t t t ) 7.7.7.7.H t ] 7.7.7.7.' H 7.7.7.2.t y y { 7.7.7.7.7.7.7.7.7.D w y w y y w y t t t t t t t t t t w 8.8.8.8.8.8.8.8.8.",
"8.t t t t S 7.7.7.7.) y G 7.7.7.7.5.y >.7.7.7.G t t H 7.7.7.7.7.7.7.7.7.' y y y w y w y y t t S t t y t t t t 8.8.8.8.8.8.8.8.8.",
"8.t t t t t 6.7.7.7.3.y t -.7.7.7.7.D ' 7.7.7.) t y y ..7.7.7.7.7.7.../ H y w y y w y w y y S J ! X.P t t t t 8.8.8.8.8.8.8.8.8.",
"8.8.t t t t ,.7.7.7.7.H t ) 7.7.7.7.K T 7.7.7.1.t t y Y 7.7.-.' Y y y w y y y y y A S U ! o.%.%.%.%.Q y t t t w 8.8.8.8.8.8.8.8.",
"8.8.t t t y } 7.7.7.7.E y Y 7.7.7.7.R S 6.7.7.7.G y y S E S t t y y w y y y F I ! o.%.%.%.%.%.%.%.%.X.t t t t w 8.8.8.8.8.8.8.8.",
"8.8.t t w y Y 7.7.7.7.,.y S 7.7.7.7...y { 7.7.7.' y y t t t t t y y w y X.#.%.%.%.%.%.%.%.%.%.%.%.%.%.S t t t t 8.8.8.8.8.8.8.8.",
"8.8.t t y t y 2.7.7.7.7.K t 7.7.7.7.6.y Y 7.7.7.,.y t t y t t t y y y w X.#.%.%.%.%.%.%.%.%.%.%.%.%.%.I t t t t 8.8.8.8.8.8.8.8.",
"8.8.t t w y t } 7.7.7.7.) y } 7.7.7.7.Y G 7.7.7.7.K t t t t t t w y w y W %.%.%.%.%.%.%.%.%.%.%.%.%.%.! t t y t t 8.8.8.8.8.8.8.",
"8.8.t t y t t R 7.7.7.7...y T 7.7.7.7.{ y <.7.7.7.) t t t t t t y w y w F %.%.%.%.%.%.%.%.%.%.%.%.%.%.X.t t t t t 8.8.8.8.8.8.8.",
"8.8.8.t t t t S 6.7.7.7.7.G S 7.7.7.7.2.y Y 7.7.7.,.t t t t t t y y y w A #.%.%.%.%.%.%.%.%.%.%.%.%.%.#.t t t t t 8.8.8.8.8.8.8.",
"8.8.8.t t t t t } 7.7.7.7.' y } 7.7.7.7.L H 7.7.7.7.t t t t t t w w y y y O.%.%.%.%.%.%.%.%.%.%.%.%.%.%.P t t t t t 8.8.8.8.8.8.",
"8.8.8.t t t t t L 7.7.7.7.;.y H 7.7.7.7.} D 7.7.7.7.t y t t t t y y y y y X.%.%.%.%.%.%.%.%.%.%.%.%.%.%.( t t t t t 8.8.8.8.8.8.",
"8.8.8.t t t t y G 7.7.7.7.2.y y 7.7.7.7.<.S 7.7.7.7.Y y t t y t y w y y y ! %.%.%.%.%.%.%.%.%.%.%.%.%.%.O.t t t t t 8.8.8.8.8.8.",
"8.8.8.t t t t t t | 7.7.7.7.t t } 7.7.7.7.G >.7.7.7.-.t t t t t w y w y w J %.%.%.%.%.%.%.%.%.%.%.%.%.%.#.y y w y y w 8.8.8.8.8.",
"8.8.8.8.t t t t t G 7.7.7.7.G y D 7.7.7.7.} R 7.7.7.5.t t t t t y w y w y A %.%.%.%.%.%.%.%.%.%.%.%.%.%.%.J y y y w y 8.8.8.8.8.",
"8.8.8.8.t t t t t y 7.7.7.7.} y y 2.7.7.7.2.y 6.7.7.7.Y t t t t w y w y y y %.%.%.%.%.%.%.%.%.%.%.%.%.%.%.! y y w w w 8.8.8.8.8.",
"8.8.8.8.t t t t t t 5.7.7.7.1.t t -.7.7.7.5.y 2.7.7.7.-.t t t t y w y w y y $.%.%.%.%.%.%.%.%.%.%.%.%.%.%.O.w w y y y 8.8.8.8.8.",
"8.8.8.8.t t t t t t 2.7.7.7.7.G t G 7.7.7.7.w ' 7.7.7.6.t t t t w y w y y y @.%.%.%.%.%.%.%.%.%.%.%.%.%.%.O.y y y y y w 8.8.8.8.",
"8.8.8.8.8.t t t t t  .7.7.7.7.} t t 6.7.7.7.V S 7.7.7.7.Y t t t y w y w y y O.%.%.%.%.%.%.%.%.$.#.#.Q J y A w y w w y y 8.8.8.8.",
"8.8.8.8.8.t t t t t K 7.7.7.7.6.t t 3.7.7.7.' t 3.7.7.7.>.t t t w y y y y y X.%.%.%.%.$.#.X.S y y w y y y y w y y y w y 8.8.8.8.",
"8.8.8.8.8.t t t t y y 3.7.7.7.7.D y :.7.7.7.7.t -.7.7.7.7.D t t y w w y y y Q X.! J F S y w y w y y y w w y y w y w y y w 8.8.8.",
"8.8.8.8.8.t t t t t t | 7.7.7.7.{ y ) 7.7.7.7.K Y 7.7.7.7.E t t w y w y y w y y w y w y y y w y t t r 8 & @ . 8 y w w y w 8.8.8.",
"8.8.8.8.8.t t t t t t T 7.7.7.7.6.y D 6.7.7.7.) t 4.7.7.<.` t t y w y w y w y w y w y w w y q 7 & @           % y y y w y 8.8.8.",
"8.8.8.8.8.8.t t t t t t 5.7.7.7.7.H y :.7.7.7.>.t ' R t t t t t w y B y w y y w y w q 7 O X                 # 5 w y y y y 8.8.8.",
"8.8.8.8.8.8.t t t t y t &.7.7.7.6.R t / ;.{ G y t t t t t t t t y w y r q 0 0 7 o             . X @ # 4 0 t t w y w w y y y 8.8.",
"8.8.8.8.8.8.y t t t t t R 6.` D t t t t y y t t t t t t t t w w e 4                     . + q w t t t y t r 9 $ O t t t t t 8.8.",
"8.8.8.8.8.8.y t t t t t t y t t t y t t t t t t t t t w 8 o .                     + 9 w w y w y t t 8 @ .         w t t t t 8.8.",
"8.8.8.8.8.8.w y t t t t t t t t t t y t t t t t t t @ .                   X 7 q r w y y w w 7 @ +                 9 t t t t 8.8.",
"8.8.8.8.8.8.8.y t t t t t t y w 8.8.8.8.w t t t t t 5         @ 4 5 7 9 e w y e 7 4 4 o @                         O t t t t t 8.",
"8.8.8.8.8.8.8.t t t t y w 8.8.8.8.8.8.8.8.t t t t t q + o 7 r w t t w q 7 4 .                               + o 5 8 t t y t t 8.",
"8.8.8.8.8.8.8.w 8.8.8.8.8.8.8.8.8.8.8.8.8.t t t t t t t y y w q 9 4                                 + % 7 q t t y y t t t t t 8.",
"8.8.8.8.8.8.8.8.8.8.8.8.8.8.8.8.8.8.8.8.8.8.t t y y t r 0 4                               . + 4 0 t t t t t t t t t t t t t t 8.",
"8.8.8.8.8.8.8.8.8.8.8.8.8.8.8.8.8.8.8.8.8.8.t t t y y 0                       . o 6 e r r w t t t t t t t t t y t t t t t 8.8.8.",
"8.8.8.8.8.8.8.8.8.8.8.8.8.8.8.8.8.8.8.8.8.8.y t t t w r               $ 6 q w y t t t t y t t t t t t t t t t t t t t t t 8.8.8.",
"8.8.8.8.8.8.8.8.8.8.8.8.8.8.8.8.8.8.8.8.8.8.t t t t y t X   @ 4 8 q t t y y w w t t t t t t t t t t t t t t t t t t t t t 8.8.8.",
"8.8.8.8.8.8.8.8.8.8.8.8.8.8.8.8.8.8.8.8.8.8.w y t t t y q e w w t t t t y w y w t t t t t t t y t t t t t w y A s s 8.8.8.8.8.8.",
"8.8.8.8.8.8.8.8.8.8.8.8.8.8.8.8.8.8.8.8.8.8.t t t t y w y y y y t t t t y w t i i a p g f d h j v l z x x c c c c 8.8.8.8.8.8.8.",
"8.8.8.8.8.8.8.8.8.8.8.8.8.8.8.8.8.8.8.8.8.8.w t t t t t t A A A a s f h k l c c c c c c c c c c c c c c c c c c c 8.8.8.8.8.8.8.",
"8.8.8.8.8.8.8.8.8.8.8.8.8.8.8.8.8.8.8.8.8.8.8.t t 8.k c c c c c c c c c c c c c c c c c c c c c c c c c c c c 8.8.8.8.8.8.8.8.8.",
"8.8.8.8.8.8.8.8.8.8.8.8.8.8.8.8.8.8.8.8.8.8.8.8.8.8.c c c c c c c c c c c c c c c c c c c c c 8.8.8.8.8.8.8.8.8.8.8.8.8.8.8.8.8.",
"8.8.8.8.8.8.8.8.8.8.8.8.8.8.8.8.8.8.8.8.8.8.8.8.8.8.c c c c c c c c c c 8.8.8.8.8.8.8.8.8.8.8.8.8.8.8.8.8.8.8.8.8.8.8.8.8.8.8.8.",
"8.8.8.8.8.8.8.8.8.8.8.8.8.8.8.8.8.8.8.8.8.8.8.8.8.8.8.c c 8.8.8.8.8.8.8.8.8.8.8.8.8.8.8.8.8.8.8.8.8.8.8.8.8.8.8.8.8.8.8.8.8.8.8.",
"8.8.8.8.8.8.8.8.8.8.8.8.8.8.8.8.8.8.8.8.8.8.8.8.8.8.8.8.8.8.8.8.8.8.8.8.8.8.8.8.8.8.8.8.8.8.8.8.8.8.8.8.8.8.8.8.8.8.8.8.8.8.8.8.",
"8.8.8.8.8.8.8.8.8.8.8.8.8.8.8.8.8.8.8.8.8.8.8.8.8.8.8.8.8.8.8.8.8.8.8.8.8.8.8.8.8.8.8.8.8.8.8.8.8.8.8.8.8.8.8.8.8.8.8.8.8.8.8.8.",
"8.8.8.8.8.8.8.8.8.8.8.8.8.8.8.8.8.8.8.8.8.8.8.8.8.8.8.8.8.8.8.8.8.8.8.8.8.8.8.8.8.8.8.8.8.8.8.8.8.8.8.8.8.8.8.8.8.8.8.8.8.8.8.8."
};
