/* XPM */
static char *result[] = {
/* columns rows colors chars-per-pixel */
"64 64 202 2 ",
"   c #3B5377",
".  c #3E526F",
"X  c #4C5154",
"o  c #4D5B59",
"O  c #515D53",
"+  c #5D784F",
"@  c #546452",
"#  c #576A51",
"$  c #556B56",
"%  c #5A7351",
"&  c #5D7A52",
"*  c #445466",
"=  c #4A6568",
"-  c #456875",
";  c #487275",
":  c #537460",
">  c #757471",
",  c #DD6433",
"<  c #D76A34",
"1  c #C7733A",
"2  c #E26231",
"3  c #E2683A",
"4  c #E0602E",
"5  c #9D7954",
"6  c #A4774F",
"7  c #C46542",
"8  c #E2754D",
"9  c #62834F",
"0  c #69944D",
"q  c #63945B",
"w  c #608D59",
"e  c #72A74B",
"r  c #7BBD47",
"t  c #7ABD49",
"y  c #77B94D",
"u  c #69AB5F",
"i  c #4F8E7D",
"p  c #568476",
"a  c #559575",
"s  c #5B9B77",
"d  c #5D9D6E",
"f  c #6CA77A",
"g  c #72AD6D",
"h  c #B8AE37",
"j  c #CAB02C",
"k  c #B2C42A",
"l  c #DDC813",
"z  c #CAC61D",
"x  c #E8CA0C",
"c  c #FFCC00",
"v  c #F4CB06",
"b  c #939150",
"n  c #95A146",
"m  c #A2AC42",
"M  c #828C62",
"N  c #82B277",
"B  c #E18A69",
"V  c #98CC7B",
"C  c #8DC476",
"Z  c #314E88",
"A  c #365B87",
"S  c #264B9C",
"D  c #29549D",
"F  c #315890",
"G  c #3C6A89",
"H  c #326B9C",
"J  c #356994",
"K  c #3B7798",
"L  c #3C728D",
"P  c #164ABB",
"I  c #1A4BB4",
"U  c #1A54BB",
"Y  c #1E5BB9",
"T  c #1F4BAA",
"R  c #2558A7",
"E  c #365DAA",
"W  c #225CB5",
"Q  c #225EBC",
"!  c #2A5DB3",
"~  c #214AA5",
"^  c #2B6AAA",
"/  c #2A68A9",
"(  c #2361B3",
")  c #2A65BC",
"_  c #366DB9",
"`  c #3A73B9",
"'  c #3674A4",
"]  c #425F9F",
"[  c #447B85",
"{  c #59768B",
"}  c #457199",
"|  c #496E89",
" . c #497ABC",
".. c #457CA3",
"X. c #0C47CD",
"o. c #0D4ACE",
"O. c #114DCB",
"+. c #184CC3",
"@. c #1652C4",
"#. c #1A56C6",
"$. c #1652CD",
"%. c #1F59C6",
"&. c #0643D6",
"*. c #0946D3",
"=. c #0C49D2",
"-. c #124DD2",
";. c #1651D5",
":. c #1B55D0",
">. c #235CCC",
",. c #245CD6",
"<. c #2D65CC",
"1. c #2964C2",
"2. c #3168D0",
"3. c #4A78C5",
"4. c #4477D5",
"5. c #43828B",
"6. c #4A8886",
"7. c #478593",
"8. c #528C9C",
"9. c #589396",
"0. c #538385",
"q. c #6D9997",
"w. c #66998B",
"e. c #73A58E",
"r. c #6CA396",
"t. c #72A79D",
"y. c #73AB8B",
"u. c #4E87A7",
"i. c #5688B6",
"p. c #5D91B4",
"a. c #4B82B0",
"s. c #689DA4",
"d. c #6C92B4",
"f. c #77A9A9",
"g. c #70A3AC",
"h. c #5584D7",
"j. c #5387C0",
"k. c #6998C7",
"l. c #6692DC",
"z. c #7BA7C7",
"x. c #7CA5D5",
"c. c #5986E3",
"v. c #759DE1",
"b. c #97B494",
"n. c #8CB29E",
"m. c #A5BB95",
"M. c #849EAF",
"N. c #87A8B5",
"B. c #8DADA8",
"V. c #A7B6A6",
"C. c #E2A28C",
"Z. c #99CA88",
"A. c #A3D28C",
"S. c #A8D595",
"D. c #B1CE8D",
"F. c #97C1B3",
"G. c #97C3A8",
"H. c #BCC4A6",
"J. c #A7D1A7",
"K. c #B4DBAB",
"L. c #A3CABB",
"P. c #ACD2B9",
"I. c #BADEB4",
"U. c #BEE0BD",
"Y. c #CAD296",
"T. c #D2D59C",
"R. c #C1CA9C",
"E. c #CACBA8",
"W. c #CFCAB7",
"Q. c #E4DAAE",
"!. c #ECDCB6",
"~. c #E4D9B1",
"^. c #C0E1BF",
"/. c #96BCCD",
"(. c #95BAD7",
"). c #87B0CC",
"_. c #9ABCE0",
"`. c #A0BFEC",
"'. c #9DC2CA",
"]. c #B6D7CA",
"[. c #A9CAD7",
"{. c #B7D6D5",
"}. c #AACDCA",
"|. c #A6C5E8",
" X c #C2DFD5",
".X c #E3D7D7",
"XX c #C8E6CE",
"oX c #C3E2C8",
"OX c #CAE6D3",
"+X c #CEE9D9",
"@X c #C9E5D9",
"#X c #D1EADD",
"$X c #C6E1E2",
"%X c #D4ECE4",
"&X c #D9EEEC",
"*X c #D3EAE9",
"=X c #CDE3F3",
"-X c #DBEEF2",
";X c #D5E9F5",
":X c #DEF1F5",
">X c #E4F4FF",
",X c None",
/* pixels */
",X,X,X,X,X,X,X,X,X,X,X,X,X,X,X,X,X,X,X,X,X,X,X,X,X,X,X,X,X,X,X,X,X,X,X,X,X,X,X,X,X,X,X,X,X,X,X,X,X,X,X,X,X,X,X,X,X,X,X,X,X,X,X,X",
",X,X,X,X,X,X,X,X,X,X,X,X,X,X,X,X,X,X,X,X,X,X,X,X,X,X,X,X,X,X,X,X,X,X,X,X,X,X,X,X,X,X,X,X,X,X,X,X,X,X,X,X,X,X,X,X,X,X,X,X,X,X,X,X",
",X,X,X,X,X,X,X,X,X,X,X,X,X,X,X,X,X,X,X,X,X,X,X,X,X,X,X,X,X,X,X,X,X,X,X,X,X,X,X,X,X,X,X,X,X,X,X,X,X,X,X,X,X,X,X,X,X,X,X,X,X,X,X,X",
",X,X,X,X,X,X,X,X,X,X,X,X,X,X,X,X,X,X,X,X,X,X,X,X,X,X,X,X,X,X,X,X,X,X,X,X,X,X,X,X,X,X,X,X,X,X( ,X,X,X,X,X,X,X,X,X,X,X,X,X,X,X,X,X",
",X,X,X,X,X,X,X,X,X,X,X,X,X,X,X,X,X,X,X,X,X,X,X,X,X,X,X,X,X,X,X,X,X,X,X,X,X,X,X,X,X,X>X>X>X{.&.d ,X,X,X,X,X,X,X,X,X,X,X,X,X,X,X,X",
",X,X,X,X,X,X,X,X,X,X,X,X,X,X,X,X,X,X,X,X,X,X,X,X,X,X>X>X>X>X>X>X,X,X,X,X,X^ $X>X>X>X>X>X>X:X&.&.&.*.,X,X,X,X,X,X,X,X,X,X,X,X,X,X",
",X,X,X,X,X,X,X,X,X,X,X,X,X,X,X,X,X,X,X,X,X,X,X,X>X>X>X>X>X>X>X.XB 2 2 n &.&.J.>X>X>X>X>X>X>Xe.&.&.&.6.,X,X,X,X,X,X,X,X,X,X,X,X,X",
",X,X,X,X,X,X,X,X,X,X,X,X,X,X,X,X,X,X,X,X,X,X,X,X,X>X>X.XC.B 2 2 2 2 2 < U &.i.>X>X>X>X>X>X>X|.&.&.&.&.,X,X,X,X,X,X,X,X,X,X,X,X,X",
",X,X,X,X,X,X,X,X,X,X,X,X,X,X,X,X,X,X,X,X,X,X,X,X4 B 8 2 2 2 2 2 2 2 2 2 ] &.&.+X>X>X>X>X>X>X-X@.&.&.&.u ,X,X,X,X,X,X,X,X,X,X,X,X",
",X,X,X,X,X,X,X,X,X,X,X,X,X,X,X,X,X,X,X^ &.&.&.5 2 4 4 2 2 2 2 2 2 2 2 2 1 *.&.4.>X>X>X>X>X>XXXZ.&.&.&.^ ,X,X,X,X,X,X,X,X,X,X,X,X",
",X,X,X,X,X,X,X,X,X,X,X,X,X,X,Xa =.&.&.&.&.&.&.6.2 2 2 2 2 2 2 2 2 2 2 2 2 ] &.1.&X#X`.).q.&.&.&.&.&.&.&.,X,X,X,X,X,X,X,X,X,X,X,X",
",X,X,X,X,X,X,X,X,X,X,Xu &.&.&.&.&.&.&.&.&.&.&.&.7 2 2 2 2 2 2 2 2 2 2 , < M &.&.&.&.&.&.&.&.&.&.&.&.&.&.r ,X,X,X,X,X,X,X,X,X,X,X",
",X,X,X,X,X,X,X6.&.&.&.&.&.&.&.&.&.&.&.&.=.&.&.&.> , 3 2 , < < 7 6 M &.&.&.&.&.&.&.&.&.&.&.&.&.&.&.&.&.&.=.,X,X,X,X,X,X,X,X,X,X,X",
",X,X*.@.&.&.&.&.&.&.&.&.&.&.&.&.&.&.n.}.&Xe.&.&.*.n U +.$.&.&.&.&.&.&.&.&.&.&.&.&.&.&.&.&.&.&.&.&.&.&.&.=.,X,X,X,X,X,X,X,X,X,X,X",
",X,X&.&.&.&.&.&.&.&.&.&.&.r._.OX-.Q >X>X>X{.&.&.&.&.&.&.*.*.&.&.t.(.q.&.&.&.&.&.&.&.&.&.&.&.&.&.&.&.&.&.&.r ,X,X,X,X,X,X,X,X,X,X",
",X,X&.&.&.&.&.&.$.6.&.U.>X>X>X>X9.&.-X>X>X=X&.&.&.&.&.&.8.k.oX:X>X>X{.&.&.&.&.&.&.&.&.&.&.&.&.&.&.&.&.&.&.K ,X,X,X,X,X,X,X,X,X,X",
",X,X&.&.&.c.^.%X>XoX=.).>X>X>X>XU.*.*X:X>X:X&.&.&.Q K.+X>X>X>X>X>X>X:X-.&.&.&.&.&.&.&.&.&.&.&.&.&.&.&.&.&.o.,X,X,X,X,X,X,X,X,X,X",
",X&.&.&.&.%X>X>X>X>X-.7.>X>X>X>X:X) {.>X>X:X&.&.&.=.>X>X>X>X>X>X>X>X>XZ.&.&.&.&.&.&.&.&.&.&.&.&.&.&.&.&.&.&.,X,X,X,X,X,X,X,X,X,X",
",X&.&.&.&.oX>X>X>X>X;.&.XX>X>X>X>X2.x.>X>X>XZ.*.&.&.:X>X>X>X>X>X>X>X>X&X*.&.&.&.&.&.&.&.&.&.&.&.&.&.&.&.&.o.,X,X,X,X,X,X,X,X,X,X",
",X&.&.&.&.g.>X>X>X:X,.&.x.>X>X>X>XJ.9.>X>X>X*X*.&.&.K.>X>X>X>X>X>X>X>X>X<.&.&.&.&.&.&.&.&.&.&.&.&.&.&.&.&.&.t ,X,X,X,X,X,X,X,X,X",
",X5.&.&.&.:.>X>X>X>Xn.&.>.>X>X>X>X-XO.+X>X>X>X<.&.&.` >X>X>X>X>X>X>X>X>XB.&.&.&.&.&.&.&.&.&.&.&.&.&.&.&.&.&.W ,X,X,X,X,X,X,X,X,X",
",X5.&.&.&.&.:X>X>X>X&X&.&.oX>X>X>X>X:.z.>X>X:XA.&.&.&.U.>X>X>X:X>X>XE.c.3.&.&.&.&.&.&.&.&.&.>.q.M.H. .&.&.&.&.,X,X,X,X,X,X,X,X,X",
",X,X&.&.&.&.$X>X>X>X>X1.&.N.>X>X>X>X<.j.>X>X>X+X&.&.&.s.>X>XoXx.p.' &.&.&.&.&.-.&.&.} i.B.Y.!.!.!.!.B.&.&.&.&.a ,X,X,X,X,X,X,X,X",
",X,X&.&.&.&.'.>X>X>X>Xk.&.j.>X>X>X>Xh.^ :X>X>X>X_ &.&.#.f.O.&.&.&.&.&.&.&.&. .3.V T.!.!.!.!.!.!.!.!.Y.&.&.&.&.6.,X,X,X,X,X,X,X,X",
",X,X&.&.&.&.i.>X>X>X>X+X&.-.>X>X>X>XU.*.P.>X>X>XG.&.&.&.&.&.&.&.&.&.&.&.Y.!.!.!.!.!.!.!.!.!.!.!.!.!.!.} &.&.&.&.,X,X,X,X,X,X,X,X",
",X,X&.&.&.&.&.%X>X>X>X>Xa.&.>X>X>X>X:X&.2.>X>X>X#X&.&.&.&.&.&.&.&.&.&.&.V.!.!.!.!.!.!.!.!.!.!.!.!.!.!.p.&.&.&.&.,X,X,X,X,X,X,X,X",
",X,X&.&.&.&.*.K.>X>X>X>Xl.&.K.>X>X>X>Xp._ :X>X>X>Xu.&.&.&.&.&.&.&.&.&.&.n.!.!.!.!.!.!.!.!.!.!.!.!.!.!.M.&.&.&.&.a ,X,X,X,X,X,X,X",
",X,X6.&.&.&.&.4.>X>X>X>XoX&.i.>X>X>X>XL.&.+X>X>X>Xl.&.&.&.&.&.&.&.&.&.&.g !.!.!.!.!.!.!.!.!.!.!.!.!.!.Y.&.&.&.&.&.,X,X,X,X,X,X,X",
",X,X,X&.&.&.&.#.:X>X>X>X>Xu.$.>X>X>X>X%X&.p.>X>X>X+X&.&.&.&.&.&.&.&.&.&.&.~.!.!.!.!.!.!.!.!.!.!.!.!.!.~.&.&.&.&.&.,X,X,X,X,X,X,X",
",X,X,X*.&.&.&.&.K.>X>X>X>Xz.&.K.>X>X>X>Xr.,.>X>X>X>X&.&.&.&.&.&.&.&.&.&.&.T.!.!.!.!.!.!.!.!.!.!.!.!.!.!.e.&.&.&.&.5.,X,X,X,X,X,X",
",X,X,X=.&.&.&.&.2.>X>X>X>X].&.f >X>X>X>X(.:.:X>X>X>X&.&.&.&.&.&.&.&.&.&.&.E.!.!.!.!.!.!.!.!.!.!.!.!.!.!.B.&.&.&.&.&.,X,X,X,X,X,X",
",X,X,X=.&.&.&.&.:.>X>X>X>X;X&.;.:X>X>X>XOX-.>X>X>X>Xs.&.&.&.&.&.&.&.&.&.&.N.!.!.!.!.!.!.!.!.!.!.!.!.!.!.T.&.&.&.&.*.,X,X,X,X,X,X",
",X,X,Xy &.&.&.&.&.U.>X>X>X:X&.&.P.>X>X>X>Xf OX>X>X>XXX*.&.&.&.&.&.&.&.&.&.q.!.!.!.!.!.!.!.!.!.!.!.!.!.!.Q.&.&.&.&.&.r ,X,X,X,X,X",
",X,X,X,X&.&.&.&.&.1.>X>X>X>X8.&.1.>X>X>X>XF.V >X>X>X-X*.&.&.&.&.&.&.&.&.&.#.!.!.!.!.!.!.!.!.!.!.!.!.!.!.!.w.&.&.&.&.W ,X,X,X,X,X",
",X,X,X,X@.&.&.&.&.=.:X>X>X>X'.&.&.%X>X>X>X=X&.>X>X>X>Xy.&.&.&.&.&.&.&.&.&.&.!.!.!.!.!.!.!.!.!.!.!.!.!.!.!.m.&.&.&.&.( ,X,X,X,X,X",
",X,X,X,X&.&.&.&.&.&.-X>X>X>X%X&.&.].>X>X>X-X&.*X>X>X>X[.&.&.&.&.&.&.&.&.&.&.Q.!.!.!.!.!.!.!.!.!.!.!.!.!.!.W.&.&.&.&.&.,X,X,X,X,X",
",X,X,X,Xr &.&.&.&.&.=X>X>X>X>X_ &.8.:X>X>X>X*.F.>X>X>X:X&.&.&.&.&.&.&.&.&.&.~.!.!.!.!.!.!.!.!.!.!.!.!.!.~.E.*.&.&.&.&.s ,X,X,X,X",
",X,X,X,X,X&.&.&.&.&.}.>X>X>X>XP.&.&.:X>X>X>X%.s >X>X>X>XC &.&.&.&.&.&.&.&.&.E.!.!.!.!.!.!.!.!.Q.~.W.m.N &.*.&.&.&.&.&.Y ,X,X,X,X",
",X,X,X,X,X&.&.&.&.&.g >X>X>X>X:X;.&.=X>X>X>XS.&.%X>X>X>X@X&.&.&.&.&.&.&.&.&.R.!.!.!.!.~.Q.Y.f &.*.&.&.&.&.&.&.&.&.&.&.&.,X,X,X,X",
",X,X,X,X,X^ &.&.&.*.=.:X>X>X>X:X;.&.{.>X>X>X:X=.`.>X>X>X:X:.&.&.&.&.&.&.&.&.m.V.m.N >.Y &.&.&.&.&.&.&.&.&.&.&.&.&.&.&.&.r ,X,X,X",
",X,X,X,X,X&.&.&.&.&.&.'.>X>X>X>XK.&.z.>X>X>X>X,.r.:X>X>X>Xf.&.&.&.&.&.&.&.&.&.&.&.&.&.&.&.&.&.&.&.&.H ;   # X p &.&.&.&.=.,X,X,X",
",X,X,X,X,Xr &.&.&.&.&.f.>X>X>X>X:X@.) :X>X>X>XA.&.-X>X:X+XS.&.&.&.&.&.&.&.&.&.&.&.&.&.&.&.o.L F & # X X X X X + &.&.&.&.*.,X,X,X",
",X,X,X,X,X,X&.&.&.&.&.&.:X>X>X>X>X<.&.XX>X:X>XXX&.x.g.7.&.&.&.&.&.&.&.&.&.&.&.&.&.&.R ~ + @ X X X X X X X X % A &.&.&.&.&.,X,X,X",
",X,X,X,X,X,X*.&.&.&.&.&.].>X>X>X&XV &.c.|./.f &.&.&.&.&.&.&.&.&.&.&.Q U I I I 0 # X X X X X X X @ . . - p &.&.&.&.&.&.&.&.&.,X,X",
",X,X,X,X,X,X&.&.&.&.&.&.p.-XS.g &.&.&.&.&.&.&.&.&.&.&.&.&.&.X.X.J & X X X X X X X X X X X o p &.&.&.&.&.X.O.0 % + &.&.&.&.&.,X,X",
",X,X,X,X,X,X&.&.&.&.&.&.=.=.&.&.&.&.&.&.&.&.&.&.&.&.&.Y q $ X X X X X X X X X X X @ e X.o.&.&.&.&.&.w o o X X X X K &.&.&.&.,X,X",
",X,X,X,X,X,X5.&.&.&.&.&.&.&.&.&.&.&.&.&.&.&.&.&.&.&.# X X X X X X X X X X O | I W &.&.&.&./ ; . @ X X X X X X X X J &.&.&.&.,X,X",
",X,X,X,X,X,X,X&.&.&.&.&.&.&.@.5.,X,X,X,X^ &.&.&.&.&.  X X X X @ 9 S S R J &.&.L A Z Z $ # X X X X X X X X X X X o * &.&.&.&.i ,X",
",X,X,X,X,X,X,X&.&.&.@.&.5.,X,X,X,X,X,X,X,X&.&.&.&.&.R @ % F 5.&.&.&.X.H D 9 O X X X X X X X X X X X X X X X @ % Z J &.&.&.&.&.,X",
",X,X,X,X,X,X,Xt ,X,X,X,X,X,X,X,X,X,X,X,X,X( &.&.&.&.&.*.&.&.Y W G 9 X X X X X X X X X X X X X X X X @   - i &.&.&.&.&.&.&.&.&.,X",
",X,X,X,X,X,X,X,X,X,X,X,X,X,X,X,X,X,X,X,X,X,X&.&.&.&.&.+.e 9 X X X X X X X X X X X X X X X o * : q &.&.&.&.&.&.&.&.&.&.&.&.&.@.,X",
",X,X,X,X,X,X,X,X,X,X,X,X,X,X,X,X,X,X,X,X,X,X&.&.&.&.&.R X X X X X X X X X X X X + 9 I U *.*.&.&.&.&.&.&.&.&.&.&.&.&.&.&.*.,X,X,X",
",X,X,X,X,X,X,X,X,X,X,X,X,X,X,X,X,X,X,X,X,X,X&.&.&.&.&.U X X X X X X X # 0 P P &.&.&.&.&.&.&.&.&.&.&.&.&.&.&.&.&.&.&.&.&.=.,X,X,X",
",X,X,X,X,X,X,X,X,X,X,X,X,X,X,X,X,X,X,X,X,X,X&.&.&.&.&.o.O X # & T R &.&.&.&.&.&.&.&.&.&.&.&.&.&.&.&.&.&.&.&.&.&.&.&.&.&.&.,X,X,X",
",X,X,X,X,X,X,X,X,X,X,X,X,X,X,X,X,X,X,X,X,X,X&.&.&.&.&.&.L L &.&.&.&.&.&.&.&.&.&.&.&.&.&.&.&.&.*.&.&.&.&.&.&.&.0.p 0.,X,X,X,X,X,X",
",X,X,X,X,X,X,X,X,X,X,X,X,X,X,X,X,X,X,X,X,X,X' &.&.&.&.&.&.&.&.&.&.&.&.&.&.&.%.H } } { { M m h h j j x v v v c c c ,X,X,X,X,X,X,X",
",X,X,X,X,X,X,X,X,X,X,X,X,X,X,X,X,X,X,X,X,X,Xr &.&.&.&.&.Q W ! ! E { k z l x c c c c c c c c c c c c c c c c c c c ,X,X,X,X,X,X,X",
",X,X,X,X,X,X,X,X,X,X,X,X,X,X,X,X,X,X,X,X,X,X,X&.r ,Xl c c c c c c c c c c c c c c c c c c c c c c c c c c c c ,X,X,X,X,X,X,X,X,X",
",X,X,X,X,X,X,X,X,X,X,X,X,X,X,X,X,X,X,X,X,X,X,X,X,X,Xc c c c c c c c c c c c c c c c c c c c c ,X,X,X,X,X,X,X,X,X,X,X,X,X,X,X,X,X",
",X,X,X,X,X,X,X,X,X,X,X,X,X,X,X,X,X,X,X,X,X,X,X,X,X,Xc c c c c c c c c c ,X,X,X,X,X,X,X,X,X,X,X,X,X,X,X,X,X,X,X,X,X,X,X,X,X,X,X,X",
",X,X,X,X,X,X,X,X,X,X,X,X,X,X,X,X,X,X,X,X,X,X,X,X,X,X,Xc c ,X,X,X,X,X,X,X,X,X,X,X,X,X,X,X,X,X,X,X,X,X,X,X,X,X,X,X,X,X,X,X,X,X,X,X",
",X,X,X,X,X,X,X,X,X,X,X,X,X,X,X,X,X,X,X,X,X,X,X,X,X,X,X,X,X,X,X,X,X,X,X,X,X,X,X,X,X,X,X,X,X,X,X,X,X,X,X,X,X,X,X,X,X,X,X,X,X,X,X,X",
",X,X,X,X,X,X,X,X,X,X,X,X,X,X,X,X,X,X,X,X,X,X,X,X,X,X,X,X,X,X,X,X,X,X,X,X,X,X,X,X,X,X,X,X,X,X,X,X,X,X,X,X,X,X,X,X,X,X,X,X,X,X,X,X",
",X,X,X,X,X,X,X,X,X,X,X,X,X,X,X,X,X,X,X,X,X,X,X,X,X,X,X,X,X,X,X,X,X,X,X,X,X,X,X,X,X,X,X,X,X,X,X,X,X,X,X,X,X,X,X,X,X,X,X,X,X,X,X,X"
};
