/* XPM */
static char *result[] = {
/* columns rows colors chars-per-pixel */
"64 64 171 2 ",
"   c #2E3437",
".  c #2E3438",
"X  c #31373B",
"o  c #32383C",
"O  c #373E42",
"+  c #3A4146",
"@  c #3E464B",
"#  c #40484D",
"$  c #464F54",
"%  c #475055",
"&  c #485257",
"*  c #4B555B",
"=  c #4D595F",
"-  c #525E61",
";  c #54626A",
":  c #5B676B",
">  c #647175",
",  c #AA6600",
"<  c #AD6801",
"1  c #A4690F",
"2  c #B36C00",
"3  c #B96F00",
"4  c #B16F0B",
"5  c #BE7100",
"6  c #B3700C",
"7  c #A06C19",
"8  c #B27211",
"9  c #9C712B",
"0  c #996F2A",
"q  c #A47429",
"w  c #A87C35",
"e  c #C37500",
"r  c #CD7B00",
"t  c #C87700",
"y  c #D37E00",
"u  c #C57D10",
"i  c #907747",
"p  c #7E8278",
"a  c #BC8022",
"s  c #B58333",
"d  c #D68000",
"f  c #DB8300",
"g  c #D78B17",
"h  c #E18700",
"j  c #E58901",
"k  c #EB8D00",
"l  c #E48D09",
"z  c #F49200",
"x  c #FA9600",
"c  c #FF9900",
"v  c #F79A0E",
"b  c #E7951A",
"n  c #E79316",
"m  c #C88D2F",
"M  c #D38F25",
"N  c #C99238",
"B  c #E99D2C",
"V  c #E99F30",
"C  c #E4A03B",
"Z  c #A58552",
"A  c #BA9757",
"S  c #A4814C",
"D  c #808173",
"F  c #8A8979",
"G  c #AD9869",
"H  c #B29B6A",
"J  c #A5987C",
"K  c #A08764",
"L  c #B8A16E",
"P  c #AFA27D",
"I  c #B3A277",
"U  c #C29546",
"Y  c #C49448",
"T  c #D69D40",
"R  c #C69E5A",
"E  c #EBA741",
"W  c #E8A94C",
"Q  c #E5AC56",
"!  c #EEB45D",
"~  c #D1A865",
"^  c #E2AF62",
"/  c #E5B46B",
"(  c #EAB464",
")  c #ECBF7D",
"_  c #F0BE73",
"`  c #F2C47F",
"'  c #6E7D80",
"]  c #707F83",
"[  c #738286",
"{  c #77868A",
"}  c #78878B",
"|  c #77888C",
" . c #79888C",
".. c #7B8786",
"X. c #7D8E92",
"o. c #9A9586",
"O. c #829296",
"+. c #849599",
"@. c #87989C",
"#. c #8A9B9E",
"$. c #9E9E9E",
"%. c #949D95",
"&. c #8B9087",
"*. c #A29B87",
"=. c #9BA49B",
"-. c #9FA291",
";. c #A3A18B",
":. c #A1A492",
">. c #8B9EA1",
",. c #8FA1A5",
"<. c #93A4A5",
"1. c #93A6AA",
"2. c #97A9AD",
"3. c #99A8A8",
"4. c #9CADB1",
"5. c #9FB0B3",
"6. c #A2A2A2",
"7. c #ACACAC",
"8. c #A2B3B6",
"9. c #AEBDBF",
"0. c #A7B6BA",
"q. c #B3B3B3",
"w. c #BBBBBB",
"e. c #B2B6AC",
"r. c #CCB68B",
"t. c #C0BEAD",
"y. c #ECC282",
"u. c #F3C889",
"i. c #E9C99A",
"p. c #F4CE94",
"a. c #F4D09B",
"s. c #E6D0AF",
"d. c #E2CFB1",
"f. c #EED7B1",
"g. c #F7D8AC",
"h. c #F8E1BF",
"j. c #B0BEC1",
"k. c #BCC8CA",
"l. c #C3C3C2",
"z. c #CCCCCC",
"x. c #C2CCCF",
"c. c #D8D4CF",
"v. c #D6D4CD",
"b. c #C3CED0",
"n. c #CAD3D5",
"m. c #CFD8D9",
"M. c #CAD4D6",
"N. c #D4D4D4",
"B. c #D3DADC",
"V. c #DCDBDB",
"C. c #E0D7CB",
"Z. c #E4D6C1",
"A. c #E0DEDB",
"S. c #F9E7CB",
"D. c #FAE6CA",
"F. c #FAEAD2",
"G. c #EAE5D9",
"H. c #D7DEE0",
"J. c #DDE3E4",
"K. c #E1E1E1",
"L. c #E4E8E9",
"P. c #ECECEC",
"I. c #E2E7E9",
"U. c #FCF3E4",
"Y. c #FDF5EA",
"T. c #ECEFF0",
"R. c #EEF1F1",
"E. c #F2F3F3",
"W. c #FFFFFF",
"Q. c #F7F9F9",
"!. c None",
/* pixels */
"!.!.!.!.!.!.!.!.!.!.!.!.!.!.!.!.!.!.!.!.!.!.!.!.!.!.!.!.!.!.!.!.!.!.!.!.!.!.!.!.!.!.!.!.!.!.!.!.!.!.!.!.!.!.!.!.!.!.!.!.!.!.!.!.",
"!.!.!.!.!.!.!.!.!.!.!.!.!.!.!.!.!., , , , < , , < , < , , , !.!.!.!.!.!.!.!.!.!.!.!.!.!.!.!.!.!.!.!.!.!.!.!.!.!.!.!.!.!.!.!.!.!.",
"!.!.!.!.!.!.!.!.!.!.!.!.!.!.!.!.< , < < 3 3 5 5 3 3 2 2 , , , !.!.!.!.!.!.!.!.!.!.!.!.!.!.!.!.!.!.!.!.!.!.!.!.!.!.!.!.!.!.!.!.!.",
"!.!.!.!.!.!.!.!.!.!.!.!.!.!.!., < 3 r d d f h h f y y r t 2 , , !.!.!.!.!.!.!.!.!.!.!.!.!.!.!.!.!.!.!.!.!.!.!.!.!.!.!.!.!.!.!.!.",
"!.!.!.!.!.!.!.!.!.!.!.!.!.!.!., < 3 t d f f f j f y y r t 2 , , !.!.!.!.!.!.!.!.!.!.!.!.!.!.!.!.!.!.!.!.!.!.!.!.!.!.!.!.!.!.!.!.",
"!.!.!.!.!.!.!.!.!.!.!.!.!.!., , 2 f x c c c c c c c c c z r < , !.!.!.!.!.!.!.!.!.!.!.!.!.!.!.!.!.!.!.!.!.!.!.!.!.!.!.!.!.!.!.!.",
"!.!.!.!.!.!.!.!.!.!.!.!.!., , e d c c c c c c c c c c c c k t , , !.!.!.!.!.!.!.!.!.!.!.!.!.!.!.!.!.!.!.!.!.!.!.!.!.!.!.!.!.!.!.",
"!.!.!.!.!.!.!.!.!.!.!.!.!., 2 f j c c c c c c c c c c c c z y 3 , , !.!.!.!.!.!.!.!.!.!.!.!.!.!.!.!.!.!.!.!.!.!.!.!.!.!.!.!.!.!.",
"!.!.!.!.!.!.!.!.!.!.!.K q 3 y x c c c c c c c c c c c c c c k d , , , !.!.!.!.!.!.!.!.!.!.!.!.!.!.!.!.!.!.!.!.!.!.!.!.!.!.!.!.!.",
"!.!.!.!.!.!.!.!.!.!.$.o.i 8 l x c c c c c c c c c c c c c c x z , , , !.!.!.!.!.!.!.!.!.!.!.!.!.!.!.!.!.!.!.!.!.!.!.!.!.!.!.!.!.",
"!.!.!.!.!.!.!.!.$.=.$.*.i R v c c c c c c c c c c c c c c c c c , , , !.!.!.!.!.!.!.!.!.!.!.!.!.!.!.!.!.!.!.!.!.!.!.!.!.!.!.!.!.",
"!.!.!.!.!.!.!.$.$.$.q.l.V.C.c c c c c c c c c c c c c c c c c c 5 2 , !.!.!.!.!.!.!.!.!.!.!.!.!.!.!.!.!.!.!.!.!.!.!.!.!.!.!.!.!.",
"!.!.!.!.!.!.!.$.$.$.q.t.c.C.x c c c c c c c c c c c c c c c c c 3 2 , !.!.!.!.!.!.!.!.!.!.!.!.!.!.!.!.!.!.!.!.!.!.!.!.!.!.!.!.!.",
"!.!.!.!.!.!.6.6.6.q.l.z.V.Z.c c c c c x x x x x z x x x x c c c t 3 , !.!.!.!.!.!.!.!.!.!.!.!.!.!.!.!.!.!.!.!.!.!.!.!.!.!.!.!.!.",
"!.!.!.!.$.6.6.q.l.H.A.K.K.i.c x c z z k k k k j j j k k k z z x f 5 , !.!.!.!.!.!.!.!.!.!.!.!.!.!.!.!.!.!.!.!.!.!.!.!.!.!.!.!.!.",
"!.!.!.!.$.7.j.N.K.K.K.H.K.i.c x z j j j j j j j j j j j j j k z j t , , !.!.!.!.!.!.!.!.!.!.!.!.!.!.!.!.!.!.!.!.!.!.!.!.!.!.!.!.",
"!.!.!.$.$.w.z.K.K.K.K.K.A.y.x k j j j j j j j j j j j j j j j j j e , , !.!.!.!.!.!.!.!.!.!.!.!.!.!.!.!.!.!.!.!.!.!.!.!.!.!.!.!.",
"!.!.!.$.$.v.N.K.A.K.K.H.K./ k k j j V ! y.p.a.a.f.r.H A A g j j j e , , !.!.!.!.!.!.!.!.!.!.!.!.!.!.!.!.!.!.!.!.!.!.!.!.!.!.!.!.",
"!.!.!.$.$.V.V.K.H.K.K.K.A.^ y k l B ! p.g.h.D.D.G.t.;.J H N g g j t < , !.!.!.!.!.!.!.!.!.!.!.!.!.!.!.!.!.!.!.!.!.!.!.!.!.!.!.!.",
"!.!.!.6.6.L.K.K.K.A.K.A.A.W b W _ Y.W.W.W.W.W.W.M.0.1.1.<.=.-.H M u 4 , !.!.!.!.!.!.!.!.!.!.!.!.!.!.!.!.!.!.!.!.!.!.!.!.!.!.!.!.",
"!.!.!.$.6.L.K.K.K.A.K.K.A.W b W _ U.W.W.W.W.W.W.M.0.1.1.1.<.;.H M u 3 , !.!.!.!.!.!.!.!.!.!.!.!.!.!.!.!.!.!.!.!.!.!.!.!.!.!.!.!.",
"!.!.!.6.7.P.L.K.A.K.H.K.A.C ! S.Y.W.W.W.W.W.W.W.b.8.1.1.1.1.1.1.J s 6 7 !.!.!.!.!.!.!.!.!.!.!.!.!.!.!.!.!.!.!.!.!.!.!.!.!.!.!.!.",
"!.$.$.7.l.P.P.A.A.K.K.A.A.g.W.W.W.W.W.W.W.W.W.W.E.b.8.1.1.1.1.1.1.%.&.| { !.!.!.!.!.!.!.!.!.!.!.!.!.!.!.!.!.!.!.!.!.!.!.!.!.!.!.",
"!.$.$.7.N.P.K.K.K.K.K.A.L.U.W.W.W.W.W.W.W.W.W.W.W.P.J.9.4.1.1.1.1.<.#.X.| { !.!.!.!.!.!.!.!.!.!.!.!.!.!.!.!.!.!.!.!.!.!.!.!.!.!.",
"!.$.$.q.A.P.K.K.K.A.K.K.P.W.W.W.W.W.W.W.W.W.W.W.W.W.Q.k.0.2.1.1.1.1.,.X. .{ | !.!.!.!.!.!.!.!.!.!.!.!.!.!.!.!.!.!.!.!.!.!.!.!.!.",
"!.$.$.w.P.P.P.A.A.K.L.T.W.W.W.W.W.W.W.W.W.W.W.W.W.W.W.W.Q.H.j.2.1.1.1.>.X.| | !.!.!.!.!.!.!.!.!.!.!.!.!.!.!.!.!.!.!.!.!.!.!.!.!.",
"!.$.6.l.P.P.K.K.K.A.E.E.W.W.W.W.W.W.W.W.W.W.W.W.W.W.W.W.W.Q.B.5.1.1.1.>.O. .| !.!.!.!.!.!.!.!.!.!.!.!.!.!.!.!.!.!.!.!.!.!.!.!.!.",
"$.$.7.v.E.P.P.K.K.K.Q.W.W.W.W.W.W.W.W.W.W.W.W.W.W.W.W.W.W.W.L.x.1.1.1.<.@.} } | !.!.!.!.!.!.!.!.!.!.!.!.!.!.!.!.!.!.!.!.!.!.!.!.",
"$.$.7.N.E.P.K.K.K.A.Q.W.W.W.W.W.W.W.W.W.W.W.W.W.W.W.W.W.W.W.L.x.1.1.1.>.@.| { { !.!.!.!.!.!.!.!.!.!.!.!.!.!.!.!.!.!.!.!.!.!.!.!.",
"$.$.7.V.P.P.P.K.K.K.W.W.W.W.W.W.W.W.W.W.W.W.W.W.W.W.W.W.W.W.R.B.1.1.1.1.>.| { { !.!.!.!.!.!.!.!.!.!.!.!.!.!.!.!.!.!.!.!.!.!.!.!.",
"%.$.q.H.E.P.L.A.K.K.W.W.W.W.W.W.W.W.W.W.W.W.W.W.W.W.W.W.W.W.E.L.1.1.1.1.>.} { } !.!.!.!.!.!.!.!.!.!.!.!.!.!.!.!.!.!.!.!.!.!.!.!.",
"$.$.w.P.E.P.L.A.K.L.Q.W.W.W.W.W.W.W.W.W.W.W.W.W.W.W.W.W.W.W.Q.I.1.1.1.1.1.} } } !.!.!.!.!.!.!.!.!.!.!.!.!.!.!.!.!.!.!.!.!.!.!.!.",
"$.$.q.P.E.P.K.K.A.L.W.W.W.W.W.W.W.W.W.W.W.W.W.W.W.W.W.W.W.W.E.L.1.1.1.1.1. . . .!.!.!.!.!.!.!.!.!.!.!.!.!.!.!.!.!.!.!.!.!.!.!.!.",
"$.$.q.V.E.P.P.K.K.L.Q.W.W.W.W.W.W.W.W.W.W.W.W.W.W.W.W.W.W.W.E.L.1.1.1.1.1. . . .!.!.!.!.!.!.!.!.!.!.!.!.!.!.!.!.!.!.!.!.!.!.!.!.",
"$.$.7.c.R.P.P.A.K.K.W.W.W.W.W.W.W.W.W.W.W.W.W.W.W.W.W.W.W.W.R.J.1.1.1.1.1. . . .!.!.!.!.!.!.!.!.!.!.!.!.!.!.!.!.!.!.!.!.!.!.!.!.",
"!.$.7.z.E.P.K.K.K.K.W.W.W.W.W.W.W.W.W.W.W.W.W.W.W.W.W.W.W.W.P.m.1.1.1.1.1. . . .!.!.!.!.!.!.!.!.!.!.!.!.!.!.!.!.!.!.!.!.!.!.!.!.",
"!.6.7.z.E.P.P.K.K.K.W.W.W.W.W.W.W.W.W.W.W.W.W.W.W.W.W.W.W.W.P.m.1.1.1.1.1.{ {  .!.!.!.!.!.!.!.!.!.!.!.!.!.!.!.!.!.!.!.!.!.!.!.!.",
"!.$.$.l.P.P.K.K.K.A.Q.Q.W.W.W.W.W.W.W.W.W.W.W.W.W.W.W.W.W.W.J.k.1.1.1.1.>.{ | { !.!.!.!.!.!.!.!.!.!.!.!.!.!.!.!.!.!.!.!.!.!.!.!.",
"!.$.$.w.P.P.K.K.A.K.P.E.W.W.W.W.W.W.W.W.W.W.W.W.W.W.W.W.W.Q.m.4.1.1.1.>.+. .} !.!.!.!.!.!.!.!.!.!.!.!.!.!.!.!.!.!.!.!.!.!.!.!.!.",
"!.$.$.7.N.P.L.K.K.K.K.P.Q.W.W.W.W.W.W.W.W.W.W.W.W.W.W.Q.I.k.8.1.1.1.>.>.|  . .!.!.. . . . . . . . . . . . . . . . . .   .     !.",
"!.!.$.7.z.P.L.K.K.A.K.L.E.W.W.W.W.W.W.W.W.W.W.W.W.Q.Q.J.n.9.4.1.1.1.>.@. .| | !.!.. . . . o o o X O X O o o o o X X o X X     !.",
"!.!.!.7.w.P.L.A.K.H.K.K.K.W.W.W.W.W.W.W.W.W.W.W.W.R.J.2.1.1.1.1.1.1.>.X. .{ { !.. . . X + + + + O O O + + + + + + + + O X .     ",
"!.!.!.6.7.P.L.A.A.K.K.A.A.y.Q.W.W.W.W.W.W.W.W.W.K.j.1.1.1.1.1.1.<.o.F | { !.!.!.    @ % & = = = - = = = & % $ $ % $ % $ # O . . ",
"!.!.!.6.6.K.K.K.K.A.K.K.A.Q _ F.Y.W.W.W.W.W.W.W.n.0.1.1.1.1.<.<.Y w q i D  . .>     $ % * ; ; ; - - ; - * $ % $ % $ $ $ $ O . . ",
"!.!.!.6.6.K.K.K.K.A.K.K.A.Q ` F.Y.W.W.W.W.W.W.W.n.0.<.1.1.1.<.<.U s 9 i p  . .> . . @ & = ; ; ; ; ; ; ; * % $ $ % $ % $ $ O . . ",
"!.!.!.$.6.N.V.K.K.K.K.H.A.^ k V C _ D.W.W.W.W.W.B.0.1.1.1.*.A M j t , 9 p  . .[ . . $ & = ; : ; ; ; ; ; * $ $ % $ $ $ $ $ O . . ",
"!.!.!.$.$.z.N.A.K.A.K.A.A./ j l n E p.F.F.U.Y.Y.v.e.=.-.:.H N j f e < 9  .O.+.[ .   $ % = ; ; ; ; : ; ; * $ $ % $ % % $ $ O . . ",
"!.!.!.!.$.w.z.K.K.H.K.A.A./ j j j j j B ! _ ` ` ) ~ A A M l j j f 5 < w 1.1.1.X.. . $ % = ; ; ; ; ; ; ; * % $ $ $ $ $ $ $ O . . ",
"!.!.!.!.$.6.q.z.V.K.V.K.A.y.x k j j j j l l l l l l h l j j j j j e < a L 1.3.X.. . # % % % % & * & & % % $ $ $ % $ % $ $ o X . ",
"!.!.!.!.$.6.6.q.l.N.K.K.A.i.c z z z k j j j j j j j j j j j k z f 5 3 g C 1.1.+.@ . + + @ @ @ @ @ @ @ @ @ # @ @ @ @ @ # + X . . ",
"!.!.!.!.!.!.$.$.6.7.l.z.V.s.c c c x x z z k k z k k k z z z x c r 3 5 k v =.<.>.> X X X X o X o O . O O X o X X X o o o X     !.",
"!.!.!.!.!.!.!.$.6.6.w.l.c.d.c c c c c x z z z z z z z z x c c c e 2 5 k x -.=.,.[ + o X X X X .         . . . .               !.",
"!.!.!.!.!.!.!.$.$.$.w.w.c.d.c c c c c x z z z z z z z z x c c c e 2 5 z c :.=.1.[ + X X X X X .     . . . . . . . . . .       !.",
"!.!.!.!.!.!.!.!.!.$.$.J w Y c c c c c c c c c c c c c c c c c c < < t x c I ;.1.1.>.> : ; - * !.!.!.!.!.!.!.!.!.!.!.!.!.!.!.!.!.",
"!.!.!.!.!.!.!.!.!.!.$.J q 8 k x c c c c c c c c c c c c c c x z < < t c c R P 1.1.1.>.+.{ [ ' !.!.!.!.!.!.!.!.!.!.!.!.!.!.!.!.!.",
"!.!.!.!.!.!.!.!.!.!.!.Z 1 < y z c c c c c c c c c c c c c c z f , 2 d c c R I 1.,.#.+.+.X. .!.!.!.!.!.!.!.!.!.!.!.!.!.!.!.!.!.!.",
"!.!.!.!.!.!.!.!.!.!.!.!.!., 3 h z c c c c c c c c c c c c z f 5 , e k c c U G O.O.X. . .{ !.!.!.!.!.!.!.!.!.!.!.!.!.!.!.!.!.!.!.",
"!.!.!.!.!.!.!.!.!.!.!.!.!., , y j c c c c c c c c c c c c z r , , d k c c m Z ..| {  .{ { !.!.!.!.!.!.!.!.!.!.!.!.!.!.!.!.!.!.!.",
"!.!.!.!.!.!.!.!.!.!.!.!.!.!., , < r c c c c c c c c c c j 5 < , r j z k j 5 6 9 p ..!.!.!.!.!.!.!.!.!.!.!.!.!.!.!.!.!.!.!.!.!.!.",
"!.!.!.!.!.!.!.!.!.!.!.!.!.!., , , 3 r h h h h h f j f y e < , , 2 5 5 5 5 < < 1 !.!.!.!.!.!.!.!.!.!.!.!.!.!.!.!.!.!.!.!.!.!.!.!.",
"!.!.!.!.!.!.!.!.!.!.!.!.!.!., , , 3 r f h h h h j j f d e < , , 2 5 5 5 5 < < 1 !.!.!.!.!.!.!.!.!.!.!.!.!.!.!.!.!.!.!.!.!.!.!.!.",
"!.!.!.!.!.!.!.!.!.!.!.!.!.!.!.!., , < 5 5 5 5 5 5 5 5 2 < , , , < , , , < !.!.!.!.!.!.!.!.!.!.!.!.!.!.!.!.!.!.!.!.!.!.!.!.!.!.!.",
"!.!.!.!.!.!.!.!.!.!.!.!.!.!.!.!.!., < , < , < , , , < , < , , , , < < , < !.!.!.!.!.!.!.!.!.!.!.!.!.!.!.!.!.!.!.!.!.!.!.!.!.!.!.",
"!.!.!.!.!.!.!.!.!.!.!.!.!.!.!.!.!.!.!.!.!.!.!.!.!.!.!.!.!.!.!.!.!.!.!.!.!.!.!.!.!.!.!.!.!.!.!.!.!.!.!.!.!.!.!.!.!.!.!.!.!.!.!.!."
};
