/* XPM */
static char *result[] = {
/* columns rows colors chars-per-pixel */
"64 64 178 2 ",
"   c #A76300",
".  c #AA6500",
"X  c #AE6900",
"o  c #A86B0F",
"O  c #B26B00",
"+  c #B96F00",
"@  c #BE7200",
"#  c #A46A11",
"$  c #A36D1B",
"%  c #A9762A",
"&  c #B77E2A",
"*  c #A77B39",
"=  c #C47500",
"-  c #C87700",
";  c #C77800",
":  c #CB7A00",
">  c #D47F00",
",  c #BB822D",
"<  c #B58133",
"1  c #D78100",
"2  c #DB8300",
"3  c #DF8B0C",
"4  c #C78013",
"5  c #DA8C16",
"6  c #D58E1F",
"7  c #DA8E19",
"8  c #E18600",
"9  c #E58900",
"0  c #EC8E00",
"q  c #E38D0B",
"w  c #EA910B",
"e  c #F39200",
"r  c #FA9600",
"t  c #FF9900",
"y  c #FA9A0A",
"u  c #F79A0E",
"i  c #E8971F",
"p  c #E69112",
"a  c #D38E23",
"s  c #CC9133",
"d  c #E89720",
"f  c #E79824",
"g  c #E89A25",
"h  c #E99E2D",
"j  c #E39E38",
"k  c #EBA63F",
"l  c #E4A03B",
"z  c #A4824F",
"x  c #AB8143",
"c  c #B18948",
"v  c #BF964F",
"b  c #B08C57",
"n  c #BC9655",
"m  c #B9985A",
"M  c #928C75",
"N  c #999277",
"B  c #9F9079",
"V  c #B39A67",
"C  c #AC9D75",
"Z  c #A79E7E",
"A  c #AA9D79",
"S  c #C49444",
"D  c #C2944A",
"F  c #C49C5A",
"G  c #E4A446",
"H  c #E8AA4D",
"J  c #E8AC54",
"K  c #EEB55F",
"L  c #C19B62",
"P  c #E4AF62",
"I  c #E6B264",
"U  c #EFB662",
"Y  c #EAB86C",
"T  c #F0BC6F",
"R  c #E5B670",
"E  c #EABC77",
"W  c #ECBF7B",
"Q  c #ECC07D",
"!  c #F2C47F",
"~  c #7B8582",
"^  c #77878B",
"/  c #78878B",
"(  c #77888C",
")  c #78888C",
"_  c #7D8E92",
"`  c #959684",
"'  c #9F998F",
"]  c #9F9585",
"[  c #819397",
"{  c #84969A",
"}  c #899B9F",
"|  c #949D94",
" . c #9E9E9E",
".. c #A59F84",
"X. c #A1988A",
"o. c #98A49F",
"O. c #9AA196",
"+. c #B6A78B",
"@. c #ADAA93",
"#. c #8B9DA1",
"$. c #8EA1A5",
"%. c #93A4A5",
"&. c #93A6AA",
"*. c #97A9AC",
"=. c #98AAAE",
"-. c #9DAEB1",
";. c #9FB0B3",
":. c #A4A4A4",
">. c gray67",
",. c #ACA8A2",
"<. c #A0B1B4",
"1. c #ADBBBE",
"2. c #A7B6B9",
"3. c #B4B4B4",
"4. c #BCBCBC",
"5. c #C2AD8E",
"6. c #D2B488",
"7. c #CEB897",
"8. c #EBC285",
"9. c #EBC58D",
"0. c #F1C480",
"q. c #E9C897",
"w. c #E6C696",
"e. c #F4CE95",
"r. c #F5D29F",
"t. c #E1C7A0",
"y. c #E4CBA6",
"u. c #E8CCA1",
"i. c #E7CEA8",
"p. c #E5D0AF",
"a. c #F6DAAF",
"s. c #F6D6A9",
"d. c #E2CFB2",
"f. c #E5D2B5",
"g. c #E4D4BB",
"h. c #F7DFBB",
"j. c #F8E1BF",
"k. c #F7E0BD",
"l. c #AFBDC0",
"z. c #B2BFC2",
"x. c #B5C2C4",
"c. c #BBC7C9",
"v. c #BDC9CB",
"b. c #C3C3C3",
"n. c #C0CBCD",
"m. c #CCCCCC",
"M. c #C4CED1",
"N. c #CAD3D5",
"B. c #CED7D8",
"V. c #D4D4D4",
"C. c #DEDAD2",
"Z. c #D4DBDD",
"A. c #DCDCDC",
"S. c #E3D7C5",
"D. c #E9D9C3",
"F. c #E2D9CA",
"G. c #E3D8C6",
"H. c #F9E6CA",
"J. c #E8E6DD",
"K. c #F1E9DC",
"L. c #FBF0DF",
"P. c #D9DFE0",
"I. c #DDE3E4",
"U. c #E1E1E1",
"Y. c #E2E7E8",
"T. c #E4E8E9",
"R. c #ECECEC",
"E. c #EFECE4",
"W. c #FBF0E0",
"Q. c #FDF7EF",
"!. c #FDF8EF",
"~. c #EEF1F1",
"^. c #F2F3F3",
"/. c #FCF7F0",
"(. c #F6F7F8",
"). c #FFFFFF",
"_. c #FAF9F6",
"`. c None",
/* pixels */
"`.`.`.`.`.`.`.`.`.`.`.`.`.`.`.`.`.`.`.`.`.`.`.`.`.`.`.`.`.`.`.`.`.`.`.`.`.`.`.`.`.`.`.`.`.`.`.`.`.`.`.`.`.`.`.`.`.`.`.`.`.`.`.`.",
"`.`.`.`.`.`.`.`.`.`.`.`.`.`.`.`.`.`.`.`.`.`.`.`.`.`.`.. . . . . . . . . . X . . . . X . . . . . . `.`.`.`.`.`.`.`.`.`.`.`.`.`.`.",
"`.`.`.`.`.`.`.`.`.`.`.`.`.`.`.`.`.`.`.`.`.`.`.`.`.. X . X O O @ = ; : > > > 1 : ; @ @ @ + X . . .   .   `.`.`.`.`.`.`.`.`.`.`.`.",
"`.`.`.`.`.`.`.`.`.`.`.`.`.`.`.`.`.`.`.`.`.`.`.`.`.. . . X O O @ @ ; : > > > > : : @ @ @ + X . . . .     `.`.`.`.`.`.`.`.`.`.`.`.",
"`.`.`.`.`.`.`.`.`.`.`.`.`.`.`.`.`.`.`.`.`.`.`.. . . . : : 0 9 e 0 e e e e e e e e 0 0 0 0 8 2 : O X . . `.`.`.`.`.`.`.`.`.`.`.`.",
"`.`.`.`.`.`.`.`.`.`.`.`.`.`.`.`.`.`.`.`.`.. . . O ; ; r t t t t t t t t t t t t t t t t t t t 0 1 @ . X . . `.`.`.`.`.`.`.`.`.`.",
"`.`.`.`.`.`.`.`.`.`.`.`.`.`.`.`.`.`.`.`.`.. . X O : : t t t t t t t t t t t t t t t t t t t t e 8 = . . . . `.`.`.`.`.`.`.`.`.`.",
"`.`.`.`.`.`.`.`.`.`.`.`.`.`.`.`.`.`.`.$ o . X = : t t t t t t t t t t t t t t t t t t t t t t t r 8 = @ . . .   `.`.`.`.`.`.`.`.",
"`.`.`.`.`.`.`.`.`.`.`.`.`.`.`.`.`. .] * $ . X > 2 t t t t t t t t t t t t t t t t t t t t t t t t 9 9 1 . .     `.`.`.`.`.`.`.`.",
"`.`.`.`.`.`.`.`.`.`.`.`.`. . . . . .' z x < , w e t t t t t t t t t t t t t t t t t t t t t t t t r r 9 . . .   `.`.`.`.`.`.`.`.",
"`.`.`.`.`.`.`.`.`.`.`.`. . . . . . .X.z b L F u u t t t t t t t t t t t t t t t t t t t t t t t t t t 0 X   . X `.`.`.`.`.`.`.`.",
"`.`.`.`.`.`.`.`.`.`.`.`. . . . .:.>.,.+.5.7.6.y y t t t t t t t t t t t t t t t t t t t t t t t t t t 0 O X . . `.`.`.`.`.`.`.`.",
"`.`.`.`.`.`.`.`.`.`. . .:.:.>.3.4.b.m.A.C.F.f.t t t t t t r t r r r r r e r r e r e r r e r r r t t t e - @ . . `.`.`.`.`.`.`.`.",
"`.`.`.`.`.`. . . . . .:.>.>.4.V.A.U.U.U.F.i.q.t t t t t t r r e e 0 0 9 0 9 0 9 9 9 0 0 0 e e r t t t e > = . . `.`.`.`.`.`.`.`.",
"`.`.`.`.`.`. . .:.>.b.m.A.U.U.U.U.U.A.J.F.i.q.t t r r 9 9 9 9 9 9 9 9 9 9 9 9 9 9 9 9 9 9 9 9 9 9 0 e 0 9 > . . .   `.`.`.`.`.`.",
"`.`.`.`.`.`. .:.>.>.b.V.A.U.A.U.U.U.P.I.S.u.9.r r r r 9 9 9 9 9 9 9 9 9 9 9 9 9 9 9 9 9 9 9 9 9 9 0 0 0 9 > . .   . `.`.`.`.`.`.",
"`.`.`.`. . . . .4.4.V.U.U.A.U.U.U.U.A.U.D.8.0.e e 9 9 9 9 9 9 9 9 9 9 9 9 9 9 9 9 9 9 9 9 9 9 9 9 9 9 9 9 : X .     `.`.`.`.`.`.",
"`.`.`.`. . . . .V.V.A.A.U.U.A.U.U.A.U.U.d.R U > 9 9 9 9 9 k k ! ! a.a.j.j.j.j.K.E.+.Z A C n D s q 9 9 9 9 : X X   . `.`.`.`.`.`.",
"`.`.`.`. . . . .V.V.A.U.U.A.U.U.U.U.A.U.d.I P > 9 q q g g U U e.e.h.k.H.H.H.H.J.U.@...Z Z V m S a 5 3 3 9 : X X .   `.`.`.`.`.`.",
"`.`.`.`. . . . .T.T.U.U.U.U.U.U.U.U.U.U.y.J H e 9 i g L.W.).).).).).).).).).).N.v.=.&.&.&.&.&.&.o.C m S 9 1 + + . . `.`.`.`.`.`.",
"`.`.`.`. . .>.>.R.R.U.U.U.A.U.U.U.U.U.U.t.j j K 0././.).).).).).).).).).).).).M.x.*.&.&.&.&.&.&.&.&.&.%.Z c @ @ $ $ `.`.`.`.`.`.",
"`.`. .|  . .4.4.R.R.T.U.U.U.U.U.U.U.A.U.D.e.r.Q.!.).).).).).).).).).).).).).).~.R.1.;.*.&.&.&.&.&.&.&.&.%.O.N N ~ ~ ^ ^ `.`.`.`.",
"`.`. . .:. .4.4.R.R.U.U.U.U.U.A.A.U.U.U.D.r.s.(.).).).).).).).).).).).).).).).(.~.1.;.=.&.&.&.&.&.&.&.&.&.o.` ` ^ ^ ^ ^ `.`.`.`.",
"`.`. . . . .m.V.R.R.J.U.U.A.U.U.U.U.U.R.^.).).).).).).).).).).).).).).).).).).).).).(.Z.c.-.&.&.&.&.&.&.&.&.&.&.{ _ ) ) ( ^ `.`.",
"`.`. . . . .V.R.R.R.U.U.U.U.U.U.U.U.R.(.).).).).).).).).).).).).).).).).).).).).).).).(.~.Y.I.N.l.-.&.&.&.&.&.&.$.#.) ) ) ) `.`.",
"`.`. . . .:.V.R.R.R.U.U.U.A.A.U.U.U.T.).).).).).).).).).).).).).).).).).).).).).).).).).).(.^.P.x.<.&.*.&.&.&.&.$.#.( ( ) ) `.`.",
"`.`.:. .>.>.A.^.R.R.R.U.U.U.U.U.R.^.(.).).).).).).).).).).).).).).).).).).).).).).).).).).).).).).N.<.-.&.&.&.&.&.$.{ { ) ( `.`.",
" . . . .4.4.U.^.R.R.U.U.U.U.U.U.~._.(.).).).).).).).).).).).).).).).).).).).).).).).).).).).).).).P.x.l.&.&.&.&.&.$.{ { ) / / / ",
" . . . .V.V.U.^.R.R.T.U.U.U.U.T.(.).).).).).).).).).).).).).).).).).).).).).).).).).).).).).).).).R.I.N.&.&.&.&.&.$.#.#.) ) / / ",
"|  . . .V.V.R.^.R.R.T.U.A.U.U.J.^.).).).).).).).).).).).).).).).).).).).).).).).).).).).).).).).).~.Y.Z.&.&.&.&.&.&.#.#.( ) / / ",
" . . . .U.U.R.^.R.R.T.U.U.U.U.J.^.).).).).).).).).).).).).).).).).).).).).).).).).).).).).).).).).~.T.Z.&.&.&.&.&.&.$.$.( ( / / ",
" . . . .R.R.R.^.R.R.U.U.U.U.U.T.(.).).).).).).).).).).).).).).).).).).).).).).).).).).).).).).).).^.Y.Z.&.&.&.&.&.&.&.&.( ( ( ( ",
" .:. . .U.R.R.^.R.R.T.U.U.U.U.T.(.).).).).).).).).).).).).).).).).).).).).).).).).).).).).).).).).~.T.Z.&.&.&.&.&.&.&.&.) / ) ) ",
" . . . .V.m.R.^.R.R.J.U.U.U.U.E.^.).).).).).).).).).).).).).).).).).).).).).).).).).).).).).).).).~.Y.Z.&.&.&.&.&.&.&.&.) ) ) ( ",
" . . . .m.m.T.^.R.R.U.U.A.U.U.U.(.).).).).).).).).).).).).).).).).).).).).).).).).).).).).).).).).~.I.B.&.&.&.&.&.&.&.&.) ) ) ) ",
"`.`. . .3.3.U.R.R.R.U.U.U.U.U.U.~.).).).).).).).).).).).).).).).).).).).).).).).).).).).).).).).).Y.N.v.&.&.&.&.&.&.$.$.) ) ^ ^ ",
"`.`.:.:.>.>.A.^.R.R.T.U.U.U.U.U.R._.).).).).).).).).).).).).).).).).).).).).).).).).).).).).).).).Z.c.1.*.&.&.&.&.&.} #.) ) ^ ^ ",
"`.`. . .>.>.A.^.R.R.U.U.U.U.A.U.R._._.).).).).).).).).).).).).).).).).).).).).).).).).).).).).).).I.c.x.&.&.&.&.&.%.} #.) ( ^ ^ ",
"`.`. . . . .m.U.R.R.T.U.U.A.U.A.T.R.~.).).).).).).).).).).).).).).).).).).).).).).).).).).(.(.~.Y.x.&.&.&.&.&.&.&.#._ _ ) ) `.`.",
"`.`. . . .:.b.V.R.R.J.U.U.U.U.U.U.U.T._.).).).).).).).).).).).).).).).).).).).).).).).).(.I.I.M.2.=.&.&.&.&.&.&.$.} ) ) ) ) `.`.",
"`.`.`.`. . .3.4.R.R.U.U.U.U.U.U.U.U.U.U.^.).).).).).).).).).).).).).).).).).).).).Y.I.x.-.&.&.&.&.&.&.&.&.&.&.&._ _ ) ) ^ ^ `.`.",
"`.`.`.`. .:.3.4.R.R.T.U.U.U.U.U.U.A.U.U.E././.).).).).).).).).).).).).).).).).)._.I.Z.x.*.&.&.&.&.&.&.&.&.%.%.%._ _ ( ( ^ ^ `.`.",
"`.`.`.`. . .,.>.R.R.U.U.U.U.U.A.U.A.U.U.d.E 8.).).).).).).).).).).).).).).).).Y.Z.-.&.&.&.&.&.%.&.&.*.*.&.| M M ^ ^ ^ ^ `.`.`.`.",
"`.`.`.`. . . . .U.U.U.U.A.U.U.U.U.U.U.U.t.G G k U L.W.).).).).).).).).).).).).n.l.*.&.&.&.&.&.*.&.%.%.' a ; O O # # `.`.`.`.`.`.",
"`.`.`.`. . . . .U.U.U.A.U.A.U.U.U.U.U.U.t.G G G U L.L.).).).).).).).).).).).).n.1.*.&.&.&.&.%.*.&.%.%...6 4 O O # # `.`.`.`.`.`.",
"`.`.`.`. . .:. .m.m.A.U.U.U.U.U.U.U.A.U.d.R P 9 q w p H J j.j.).).).).).).).).Z.N.-.&.&.&.&.%.O.V s 3 q 9 : . . . . `.`.`.`.`.`.",
"`.`.`.`.`.`. . .3.4.m.U.U.U.U.A.U.A.A.U.d.R I 9 9 9 9 9 9 9 9 h h T T ! ! ! ! Q W F n v v 6 5 3 9 9 9 9 1 - . . .   `.`.`.`.`.`.",
"`.`.`.`.`.`. . .>.>.4.m.A.A.U.U.U.U.U.U.g.8.E e e 9 9 9 9 9 9 w p i i f f f g f f 7 7 5 5 3 2 q 9 9 9 9 8 : . . .   `.`.`.`.`.`.",
"`.`.`.`.`.`. . .:.:.3.b.V.U.P.U.U.U.U.A.g.9.8.r e 9 9 9 9 9 9 9 9 9 9 9 9 9 9 9 9 9 9 9 9 9 9 9 9 9 9 9 9 : . X     `.`.`.`.`.`.",
"`.`.`.`.`.`. . .:. .:.:.3.3.b.V.A.U.U.U.S.u.9.t t r r e e 9 9 9 9 9 9 9 9 9 9 9 9 9 9 9 9 9 9 9 9 e r e 2 ; . . `.`.`.`.`.`.`.`.",
"`.`.`.`.`.`.`.`.`.`. . .:.,.>.3.b.m.m.A.F.g.u.t t t r t r r e e e 9 0 0 0 0 9 0 0 0 9 e 0 e e e r r r e : @   X `.`.`.`.`.`.`.`.",
"`.`.`.`.`.`.`.`.`.`. . . . . . .>.4.b.A.C.S.d.t t t t t t t t r r r e e e e e e e e 0 e r r r t t t t e ; O X . `.`.`.`.`.`.`.`.",
"`.`.`.`.`.`.`.`.`.`.`.`.`.`.`. . . .X.* x n D t t t t t t t t t t t t t t t t t t t t t t t t t t t t 9 O X . . `.`.`.`.`.`.`.`.",
"`.`.`.`.`.`.`.`.`.`.`.`.`.`.`. . . .X.% & & & e e t t t t t t t t t t t t t t t t t t t t t t t t r r 9 X X . . `.`.`.`.`.`.`.`.",
"`.`.`.`.`.`.`.`.`.`.`.`.`.`.`.`.`. .B $ # . O 1 8 t t t t t t t t t t t t t t t t t t t t t t t t e 9 1   X     `.`.`.`.`.`.`.`.",
"`.`.`.`.`.`.`.`.`.`.`.`.`.`.`.`.`.`.`.. . . . - > t t t t t t t t t t t t t t t t t t t t t t t t 9 1 : .       `.`.`.`.`.`.`.`.",
"`.`.`.`.`.`.`.`.`.`.`.`.`.`.`.`.`.`.`.. . . . + ; e e t t t t t t t t t t t t t t t t t t t t t e 1 - @ . . . . `.`.`.`.`.`.`.`.",
"`.`.`.`.`.`.`.`.`.`.`.`.`.`.`.`.`.`.`.`.`.. . . O 1 2 r r t t t t t t t t t t t t t t t t r r 0 9 = . . . . `.`.`.`.`.`.`.`.`.`.",
"`.`.`.`.`.`.`.`.`.`.`.`.`.`.`.`.`.`.`.`.`.`.`.. X . X : > t t t t t t t t t t t t t t t t 2 1 ; X X . . .   `.`.`.`.`.`.`.`.`.`.",
"`.`.`.`.`.`.`.`.`.`.`.`.`.`.`.`.`.`.`.`.`.`.`..   . . .   @ O 1 1 > > > > > > 1 > > 1 - @ X . . . . .   `.`.`.`.`.`.`.`.`.`.`.`.",
"`.`.`.`.`.`.`.`.`.`.`.`.`.`.`.`.`.`.`.`.`.`.`.. . . . . . @ O > > 1 > 1 > 1 > > 1 1 > - @ X . . . .     `.`.`.`.`.`.`.`.`.`.`.`.",
"`.`.`.`.`.`.`.`.`.`.`.`.`.`.`.`.`.`.`.`.`.`.`.`.`.`.`.. . . . X . . . . . . X   . . . . . . .   `.`.`.`.`.`.`.`.`.`.`.`.`.`.`.`.",
"`.`.`.`.`.`.`.`.`.`.`.`.`.`.`.`.`.`.`.`.`.`.`.`.`.`.`.`.`.`.`.`.`.`.`.`.`.`.`.`.`.`.`.`.`.`.`.`.`.`.`.`.`.`.`.`.`.`.`.`.`.`.`.`.",
"`.`.`.`.`.`.`.`.`.`.`.`.`.`.`.`.`.`.`.`.`.`.`.`.`.`.`.`.`.`.`.`.`.`.`.`.`.`.`.`.`.`.`.`.`.`.`.`.`.`.`.`.`.`.`.`.`.`.`.`.`.`.`.`."
};
