/* XPM */
static char *result[] = {
/* columns rows colors chars-per-pixel */
"64 64 190 2 ",
"   c #AA6600",
".  c #AD6800",
"X  c #A9690A",
"o  c #B46C00",
"O  c #B96F00",
"+  c #BC7100",
"@  c #BE770A",
"#  c #A66C13",
"$  c #A36F1D",
"%  c #B97B1A",
"&  c #A9711D",
"*  c #9D6F23",
"=  c #93753D",
"-  c #A77425",
";  c #A27937",
":  c #AA7B36",
">  c #C37500",
",  c #CB7A00",
"<  c #D37E00",
"1  c #8E7646",
"2  c #907F58",
"3  c #887C5C",
"4  c #857E64",
"5  c #827F6A",
"6  c #7D837B",
"7  c #D68000",
"8  c #DC8400",
"9  c #DF8A0B",
"0  c #DC8C13",
"q  c #D68E1F",
"w  c #D98D18",
"e  c #E18700",
"r  c #E58900",
"t  c #EB8C00",
"y  c #E48D0A",
"u  c #F08F00",
"i  c #EF9000",
"p  c #E6900F",
"a  c #E8920E",
"s  c #F39200",
"d  c #FA9600",
"f  c #FF9900",
"g  c #FA9A0A",
"h  c #F79A0E",
"j  c #E79214",
"k  c #E5951B",
"l  c #E8961E",
"z  c #F29A13",
"x  c #C88D2F",
"c  c #D48F24",
"v  c #CF902C",
"b  c #D3922B",
"n  c #DB9528",
"m  c #CA943A",
"M  c #DF9C31",
"N  c #D1953C",
"B  c #C88F33",
"V  c #E89923",
"C  c #E99E2D",
"Z  c #EAA132",
"A  c #EAA43D",
"S  c #E4A03D",
"D  c #A8854A",
"F  c #B28441",
"G  c #BF964E",
"H  c #A38655",
"J  c #B28D55",
"K  c #BC9753",
"L  c #B7965A",
"P  c #82806E",
"I  c #888776",
"U  c #9B957B",
"Y  c #928E77",
"T  c #AF976B",
"R  c #B49A65",
"E  c #B49B6D",
"W  c #AA9D79",
"Q  c #A69979",
"!  c #A18B6D",
"~  c #BDA167",
"^  c #AEA27F",
"/  c #B1A179",
"(  c #B4A275",
")  c #D49E44",
"_  c #D29D4A",
"`  c #C99F54",
"'  c #C59F5B",
"]  c #C1954A",
"[  c #D5A359",
"{  c #EAA846",
"}  c #E6AA51",
"|  c #E8AB51",
" . c #EDB35D",
".. c #C1A060",
"X. c #C7AE7E",
"o. c #D2A966",
"O. c #EEB762",
"+. c #EEB96A",
"@. c #F0BC6F",
"#. c #EEBE76",
"$. c #EBBE7A",
"%. c #EEC17C",
"&. c #F2C37D",
"*. c #F1C076",
"=. c #7A8583",
"-. c #77878A",
";. c #78878A",
":. c #77888B",
">. c #79898D",
",. c #7D8E92",
"<. c #7F9094",
"1. c #858F89",
"2. c #97978A",
"3. c #829296",
"4. c #84969A",
"5. c #86989C",
"6. c #899A9E",
"7. c #9E9E9E",
"8. c #939D95",
"9. c #A19686",
"0. c #A69F93",
"q. c #9DA397",
"w. c #9BA59C",
"e. c #A1A08B",
"r. c #A6A287",
"t. c #A2A491",
"y. c #8C9EA2",
"u. c #8EA1A5",
"i. c #95A5A5",
"p. c #98A5A1",
"a. c #93A6AA",
"s. c #96A9AC",
"d. c #99ABAE",
"f. c #9CADB1",
"g. c #9FB0B3",
"h. c #A2A2A2",
"j. c #ABABAB",
"k. c #A2B2B6",
"l. c #A5B5B9",
"z. c #ADBBBE",
"x. c #B5B5B5",
"c. c #BCBCBC",
"v. c #ECC386",
"b. c #E6C89B",
"n. c #F4CE95",
"m. c #F4CD92",
"M. c #C8C2AD",
"N. c #E2CBA8",
"B. c #F6D6A7",
"V. c #E2CEB2",
"C. c #E4D3BB",
"Z. c #F7DDB5",
"A. c #F7DFBD",
"S. c #F8E1BF",
"D. c #AFBDC0",
"F. c #B2BFC2",
"G. c #B6C3C6",
"H. c #BBC7CA",
"J. c #B8C4C7",
"K. c #C3C3C3",
"L. c #CCCCCC",
"P. c #C1CCCE",
"I. c #C4CFD1",
"U. c #CAD3D5",
"Y. c #CFD8D9",
"T. c #C6D0D2",
"R. c #D4D4D4",
"E. c #DBDBDB",
"W. c #D7DBD9",
"Q. c #E4D9C9",
"!. c #E4D8C5",
"~. c #E0DEDB",
"^. c #F9E6C9",
"/. c #E7E2DB",
"(. c #F8EAD4",
"). c #D9DFE1",
"_. c #D7DEE0",
"`. c #DCE2E3",
"'. c #E1E1E1",
"]. c #E4E9EA",
"[. c #EBEBEB",
"{. c #EFEBE2",
"}. c #FDF7EE",
"|. c #FCF2E4",
" X c #EDF0F1",
".X c #F1F2F2",
"XX c #FEFAF4",
"oX c #FFFFFF",
"OX c #F6F7F8",
"+X c None",
/* pixels */
"+X+X+X+X+X+X+X+X+X+X+X+X+X+X+X+X+X+X+X+X+X+X+X+X+X+X+X+X+X+X+X+X+X+X+X+X+X+X+X+X+X+X+X+X+X+X+X+X+X+X+X+X+X+X+X+X+X+X+X+X+X+X+X+X",
"+X+X+X+X+X+X+X+X+X+X+X+X+X+X+X+X+X+X+X+X+X+X+X+X+X+X+X+X+X+X+X+X+X+X+X+X+X+X+X+X+X+X+X+X+X+X+X+X+X+X+X+X+X+X+X+X+X+X+X+X+X+X+X+X",
"+X+X+X+X+X+X+X+X+X+X+X+X+X+X+X+X+X+X+X+X+X+X+X                        .           +X+X+X+X+X+X+X+X+X+X+X+X+X+X+X+X+X+X+X+X+X+X+X",
"+X+X+X+X+X+X+X+X+X+X+X+X+X+X+X+X+X+X+X+X+X  . . o + > > , < 7 7 < , > > + + o                   +X+X+X+X+X+X+X+X+X+X+X+X+X+X+X+X",
"+X+X+X+X+X+X+X+X+X+X+X+X+X+X+X+X+X+X+X      + 8 r f f f f f f f f f f f f f s < O .           .           +X+X+X+X+X+X+X+X+X+X+X",
"+X+X+X+X+X+X+X+X+X+X+X+X+X+X+X+X+X+X+X    . + 8 t f f f f f f f f f f f f f s < + .       . . . . .       X +X+X+X+X+X+X+X+X+X+X",
"+X+X+X+X+X+X+X+X+X+X+X+X+X+X+X+X+X+X    o , 8 f f f f f f f f f f f f f f f f t e +       , 8 8 < , O O X = 5 +X+X+X+X+X+X+X+X+X",
"+X+X+X+X+X+X+X+X+X+X+X+X+X+X+X+X+X+X    O , e f f f f f f f f f f f f f f f f s r + .     , 8 e 8 < + O # 1 5 +X+X+X+X+X+X+X+X+X",
"+X+X+X+X+X+X+X+X+X+X+X+X+X+X7.Q ; - O < e g f f f f f f f f f f f f f f f f f f f t 8 +   O 8 d f f b m 2.4.3.,.,.>.>.:.-.-.+X+X",
"+X+X+X+X+X+X+X+X+X+X+X+X+X+X7.2.: : > y u f f f f f f f f f f f f f f f f f f f f s t >   . 8 d f f ) ` q.u.y.5.5.3.<.>.>.-.+X+X",
"+X+X+X+X+X+X+X+X+X+X+X7.h.7.7.9.2 K _ h h d d f f f f f f f f f f f f f f f f f f f f >     8 d f f ) ` w.u.a.a.a.a.a.3.,.-.-.-.",
"+X+X+X+X+X+X+X+X+X+X7.7.7.7.h.0.T E [ h g d f f f f f f f f f f f f f f f f f f f f f , .   < s f f _ ' w.a.a.a.a.a.a.3.,.-.-.-.",
"+X+X+X+X+X+X+X+X+Xh.7.7.7.h.x.K.W.W.b.f f f f f f f f f f f f f f f f f f f f f f f f < + o , r d f ..r.p.a.a.a.a.a.a.5.,.-.-.-.",
"+X+X+X+X+X7.7.7.h.h.j.c.R.W.'.).).Q.#.d f f f d d s s i t t t t t r t t t t s s d f f r < O > 8 s g / w.a.a.a.a.a.a.a.4.,.>.-.-.",
"+X+X+X+X+X7.7.h.j.c.K.L.E.E.'.'./.Q.*.f f f d u i t t r r t r r r r r r t r t t i s s r 8 O + > p z r.s.a.a.a.a.a.a.a.3.,.>.+X+X",
"+X+X+X+X+X7.7.j.x.R.R.'.'.'.'.'.E.!.#.f d s s r r r r r r r r r r r r r r r r r r t s t t + O + c Z e.s.a.a.a.a.a.a.a.,.-.>.+X+X",
"+X+X+X+X7.7.h.c.K.'.E.'.'.'.'.'.~.C.O.s u r r r r r r r r r r r r r r r r r r r r r r r r O O + K ~ w.a.a.a.a.a.a.a.a.>.-.-.+X+X",
"+X+X+X+X7.7.h.K.L.'.'.'.'.'.'.E.~.C. .u u r r r y j V V C Z Z Z Z A M c c c w 9 e r r r r O o + L / w.a.a.a.a.a.a.u.u.>.-.-.+X+X",
"+X+X+X+X7.7.h.R.R.'.'.'.E.'.'.'.~.V.} r r r r r k  .&.n.Z.Z.S.S.(.{.M.9.W E L c 9 e r r r + . . U w.a.a.a.a.a.a.a.4.3.>.-.-.+X+X",
"+X+X+X+X7.h.j.[.'.'.'.'.'.'.'.'.~.N.S y l { #.|.}.oXoXoXoXoXoXoX`.H.l.a.a.a.a.i.i.W R v 0 > o . P =.,.<.3.4.4.3.<.>.:.>.;.+X+X+X",
"+X+X+X+X7.j.j.[.[.~.'.E.'.~.'.'.E.b.{ A O.B.^.XXXXoXoXoXoXoXoXoX`.J.k.a.a.a.a.a.a.q.e.R K % @ # P 6 =.,.,.,.,.>.>.>.>.-.-.+X+X+X",
"+X+X+X7.7.x.c.[.[.'.'.'.'.'.'.'.E.N.+.n.Z.}.XXoXoXoXoXoXoXoXoXoX].U.D.s.s.a.a.a.a.a.s.q.e.D = = P 6 >.>.:.:.>.>.>.>.>.-.+X+X+X+X",
"+X+X7.7.h.K.K.[.].'.~.'.'.'.'.'.~.!.A.oXoXoXoXoXoXoXoXoXoXoXoXoXOX.XI.g.d.a.a.a.a.a.a.a.a.2.1.;.=.:.+X+X+X+X+X+X+X+X+X+X+X+X+X+X",
"+X+X7.7.h.L.L.[.[.'.'.'.'.'.'.'.{./.(.oXoXoXoXoXoXoXoXoXoXoXoXoXoXOX_.I.z.k.f.a.a.a.a.a.a.8.3.,.>.>.+X+X+X+X+X+X+X+X+X+X+X+X+X+X",
"+X+X7.7.h./.'. X[.'.'.'.'.'.'.'..XOXoXoXoXoXoXoXoXoXoXoXoXoXoXoXoXoXoXOX].W.I.D.k.s.a.a.a.a.y.y.,.-.>.:.+X+X+X+X+X+X+X+X+X+X+X+X",
"+X+X7.7.h.[.[.[.[.~.'.~.'.'.[.[.oXoXoXoXoXoXoXoXoXoXoXoXoXoXoXoXoXoXoXoXoXoXOX_.I.l.s.a.a.a.a.a.<.,.>.>.+X+X+X+X+X+X+X+X+X+X+X+X",
"+X+Xh.h.j..X.X[.[.'.'.'.'.'. X.XoXoXoXoXoXoXoXoXoXoXoXoXoXoXoXoXoXoXoXoXoXoXoX X[.J.f.s.a.a.a.a.4.,.>.>.+X+X+X+X+X+X+X+X+X+X+X+X",
"+X+X7.j.c..X X[.[.).'.'.'.'.OXOXoXoXoXoXoXoXoXoXoXoXoXoXoXoXoXoXoXoXoXoXoXoXoXoXoXU.D.f.a.a.a.a.6.4.>.>.:.+X+X+X+X+X+X+X+X+X+X+X",
"7.7.7.j.K..X X[.[.~.'.'.~.].OXoXoXoXoXoXoXoXoXoXoXoXoXoXoXoXoXoXoXoXoXoXoXoXoXoXoX_.P.k.a.a.a.a.6.5.>.>.-.+X+X+X+X+X+X+X+X+X+X+X",
"7.7.h.x.E..X.X[.[.'.'.'.'.[.oXoXoXoXoXoXoXoXoXoXoXoXoXoXoXoXoXoXoXoXoXoXoXoXoXoXoX X].z.a.a.a.a.u.y.,.>.-.+X+X+X+X+X+X+X+X+X+X+X",
"7.7.7.c.'..X.X[.[.'.'.'.].[.oXoXoXoXoXoXoXoXoXoXoXoXoXoXoXoXoXoXoXoXoXoXoXoXoXoXoX X].z.a.a.a.a.u.y.,.>.>.+X+X+X+X+X+X+X+X+X+X+X",
"7.7.7.K.[..X X[.].~.'.'.].[.oXoXoXoXoXoXoXoXoXoXoXoXoXoXoXoXoXoXoXoXoXoXoXoXoXoXoX X].z.a.a.a.a.a.a.,.>.>.+X+X+X+X+X+X+X+X+X+X+X",
"7.7.7.K.'..X.X[.[.'.'.'.[.[.oXoXoXoXoXoXoXoXoXoXoXoXoXoXoXoXoXoXoXoXoXoXoXoXoXoXoX X].z.a.a.a.a.a.a.,.:.-.+X+X+X+X+X+X+X+X+X+X+X",
"7.7.h.F.'..X.X[.[.'.'.'.'.[.oXoXoXoXoXoXoXoXoXoXoXoXoXoXoXoXoXoXoXoXoXoXoXoXoXoXoX X].z.a.a.a.a.a.a.,.:.>.+X+X+X+X+X+X+X+X+X+X+X",
"7.7.7.x.R..X.X[.[.'.'.'.[.[.oXoXoXoXoXoXoXoXoXoXoXoXoXoXoXoXoXoXoXoXoXoXoXoXoXoXoX X`.G.a.a.a.a.a.a.,.>.-.+X+X+X+X+X+X+X+X+X+X+X",
"+X+X0.j.K..X.X[.[.~.'.'.'.'.oXoXoXoXoXoXoXoXoXoXoXoXoXoXoXoXoXoXoXoXoXoXoXoXoXoXoX`.Y.l.a.a.a.a.a.a.,.>.,.+X+X+X+X+X+X+X+X+X+X+X",
"+X+Xh.j.x..X.X[.[.'.~.'.'.].XXoXoXoXoXoXoXoXoXoXoXoXoXoXoXoXoXoXoXoXoXoXoXoXoXoXoX`.H.g.a.a.a.a.y.y.,.-.-.+X+X+X+X+X+X+X+X+X+X+X",
"+X+X0.h.j.[.[.[.[.).'.'.'.]..XOXoXoXoXoXoXoXoXoXoXoXoXoXoXoXoXoXoXoXoXoXoXoXoXoXOXU.G.f.a.a.a.a.y.5.,.:.-.+X+X+X+X+X+X+X+X+X+X+X",
"+X+X7.h.h.[.].[.[.).'.'.'.'..X.XoXoXoXoXoXoXoXoXoXoXoXoXoXoXoXoXoXoXoXoXoXoXoXOXOXH.d.s.s.a.a.a.5.3.>.>.+X+X+X+X+X+X+X+X+X+X+X+X",
"+X+X7.7.h.E.~.[.[.~.'.'.'.'.'.[.oXoXoXoXoXoXoXoXoXoXoXoXoXoXoXoXoXoXoXoXoXoX XW.T.g.a.a.a.a.a.a.<.,.>.-.+X+X+X+X+X+X+X+X+X+X+X+X",
"+X+X+X7.h.K.L.[.[.'.'.).'.'.).'.[..XoXoXoXoXoXoXoXoXoXoXoXoXoXoXoXoX.X XY.H.G.k.d.s.a.a.a.a.6.<.,.-.-.-.+X+X+X+X+X+X+X+X+X+X+X+X",
"+X+X+X+Xh.F.K.[.[.'.~.'.'.'.'.'.[.[.XXoXoXoXoXoXoXoXoXoXoXoXoXoXoXoX X`.G.d.a.a.a.a.a.a.a.a.5.<.,.>.-.-.+X+X+X+X+X+X+X+X+X+X+X+X",
"+X+X+X+Xh.j.x.[.[.'.'.'.'.'.'.'./.!.S.oXoXoXoXoXoXoXoXoXoXoXoXoX X].I.z.g.s.a.a.a.a.a.a.s.8.1.=.-.-.+X+X+X+X+X+X+X+X+X+X+X+X+X+X",
"+X+X+X+X0.j.j.[.'.'.'.'.'.~.'.'.E.V.v.S.(.XXXXoXoXoXoXoXoXoXoXoX].U.z.a.a.a.a.a.a.i.i.e.U H H P 6 =.+X+X+X+X+X+X+X+X+X+X+X+X+X+X",
"+X+X+X+X7.h.j.'.'.'.'.'.'.'.'.~.E.N.}  .v.|.}.oXoXoXoXoXoXoXoXoX`.J.g.a.a.a.a.a.a.i.w.L B % $ * 3 5 =.-.>.>.:.-.-.-.-.>.+X+X+X+X",
"+X+X+X+X7.7.h.L.L.'.'.'.'.).'.'.~.V.} r y a V | v.(.oXoXoXoXoXXX].U.z.a.a.a.u.r.E v 9 r r +     4 =.>.>.<.5.5.5.5.>.,.:.>.+X+X+X",
"+X+X+X+X+X7.h.F.K.'.'.'.'.~.'.'.~.V.} r r t a j V { O.&.n.n.B.B.b.b.X.T R R G v q 9 e 9 8 O . . Y y.y.y.u.u.u.y.u.5.3.>.-.-.+X+X",
"+X+X+X+X+Xh.h.c.c.'.'.'.'.'.'.~.~.V.} r r r r r r j Z | @.*.&.v.&.%.o.K K ] b 9 r r r 8 7 O . . U y.a.s.a.a.a.a.a.y.y.>.-.-.+X+X",
"+X+X+X+X+X0.p.j.j.L.R.'.'.'.'.'.~.C. .s i r r r r r p j k l l l k k k 0 0 0 9 r r r r e e O o + L ( w.a.a.a.a.a.a.u.u.>.-.:.+X+X",
"+X+X+X+X+X7.h.h.h.x.F.L.E.~.'.~.~.!.+.d s s i t t r r r e r r r r r r r r r r r r t u e 8 O O > ] ` q.a.a.a.a.a.a.a.a.,.>.-.+X+X",
"+X+X+X+X+X7.7.h.7.h.j.x.R.E.'.'.~.!.#.f f d d s s r r r r r r r r r r r r r r t t s d r 8 O > < n M e.a.a.a.a.a.a.a.a.,.>.>.+X+X",
"+X+X+X+X+X+X+X+X+X7.7.7.7.h.x.K.E.E.v.f f f f f f f d d s s i s s i s s s s d d f f f < > o , r d f / t.i.a.a.a.a.a.a.4.,.>.+X+X",
"+X+X+X+X+X+X+X+X+X+X+X+X7.7.h.0.J L _ f f f f f f f f d f f f f d f f d f f f f f f f , o . < s d f ../ p.a.a.a.a.a.a.5.,.>.-.-.",
"+X+X+X+X+X+X+X+X+X+X+X+X7.7.7.9.: F N f f f f f f f f f f f f f f f f f f f f f f f f , .   < s f f ' ( w.a.a.a.a.a.a.5.<.>.-.-.",
"+X+X+X+X+X+X+X+X+X+X+X+X+X+X7.9.- - @ r i f f f f f f f f f f f f f f f f f f f f s s +   . 8 d f f _ ' w.a.a.a.a.a.a.3.,.>.-.-.",
"+X+X+X+X+X+X+X+X+X+X+X+X+X+X0.! # X + 7 r f f f f f f f f f f f f f f f f f f f f t r +   O 8 d f f ) ` w.a.a.y.y.6.6.,.>.:.-.-.",
"+X+X+X+X+X+X+X+X+X+X+X+X+X+X+X+X+X+X  . + r t f f f f f f f f f f f f f f f f s t > o     7 s f f f b B Y >.:.,.>.>.>.-.-.+X+X+X",
"+X+X+X+X+X+X+X+X+X+X+X+X+X+X+X+X+X+X    + 8 r f f f f f f f f f f f f f f f f s t +       7 s d f d c B I ;.:.:.>.>.>.-.-.+X+X+X",
"+X+X+X+X+X+X+X+X+X+X+X+X+X+X+X+X+X+X+X    . + < r f f f f f f f f f f f f f r > O .   > , t s t r r , > $ 1 5 =.-.+X+X+X+X+X+X+X",
"+X+X+X+X+X+X+X+X+X+X+X+X+X+X+X+X+X+X+X      O < r f f f f f f f f f f f f f r > . .   > , i i t r r > + $ 1 5 =.-.+X+X+X+X+X+X+X",
"+X+X+X+X+X+X+X+X+X+X+X+X+X+X+X+X+X+X+X          o > < 8 7 7 7 8 7 7 7 7 , + O .           . .   .     .   X +X+X+X+X+X+X+X+X+X+X",
"+X+X+X+X+X+X+X+X+X+X+X+X+X+X+X+X+X+X+X+X+X+X+X                        . . .                         +X+X+X+X+X+X+X+X+X+X+X+X+X+X",
"+X+X+X+X+X+X+X+X+X+X+X+X+X+X+X+X+X+X+X+X+X+X+X+X+X+X+X+X+X+X+X+X+X+X+X+X+X+X+X+X+X+X+X+X+X+X+X+X+X+X+X+X+X+X+X+X+X+X+X+X+X+X+X+X",
"+X+X+X+X+X+X+X+X+X+X+X+X+X+X+X+X+X+X+X+X+X+X+X+X+X+X+X+X+X+X+X+X+X+X+X+X+X+X+X+X+X+X+X+X+X+X+X+X+X+X+X+X+X+X+X+X+X+X+X+X+X+X+X+X"
};
