/* XPM */
static char *result[] = {
/* columns rows colors chars-per-pixel */
"64 64 21 1 ",
"  c #0013FF",
". c #0417FF",
"X c #081AFF",
"o c #0E20FD",
"O c #0F20FE",
"+ c #1223FE",
"@ c #1B2CFC",
"# c #3D4AFF",
"$ c #404DFF",
"% c #4451FF",
"& c #4A56FF",
"* c #4F5CFF",
"= c #9DA4FF",
"- c #9DA5FF",
"; c #A3AAFF",
": c #CDCFEA",
"> c #CCCEEB",
", c #CDCFEB",
"< c #D9DBE9",
"1 c gray91",
"2 c None",
/* pixels */
"2222222222222222222222222222222222222222222222222222222222222222",
"2222222222222222222222222222222222222222222222222222222222222222",
"2222222222222222222222222222222222222222222222222222222222222222",
"2222222222222222222222222222222222222222222222222222222222222222",
"2222222222222222222222222222222222222222222222222222222222222222",
"2222222222222222222222222222222222222222222222222222222222222222",
"22222222222222222222222222            22222222222222222222222222",
"22222222222222222222222222            22222222222222222222222222",
"222222222222222222222222 o<1111111111<o 222222222222222222222222",
"222222222222222222222222o@:<<<<<<<<<<:@o222222222222222222222222",
"2222222222222222222222  <:@oooooooooo@:<  2222222222222222222222",
"2222222222222222222222  1<o          o<1  2222222222222222222222",
"22222222222222222222 o<1 .$%%%%%%%%%%$. 1<o 22222222222222222222",
"22222222222222222222o@:<.X$%%%%%%%%%%$X.<:@o22222222222222222222",
"222222222222222222  <:@o$$%%%%%%%%%%%%$$o@:<  222222222222222222",
"222222222222222222  1<o %%%%%%%%%%%%%%%% o<1  222222222222222222",
"222222222222222222  1<o %%%%;;;;;;;;;=&% o<1  222222222222222222",
"222222222222222222Oo<>+.%%%%;;;;;;;;;=&%.+><oO222222222222222222",
"2222222222222222 O,<o+#$%%%%;;;;;;;;;=&%$#+o<,O 2222222222222222",
"2222222222222222 o<1 .$%%%%%;;;;;;;;;=&%%$. 1<o 2222222222222222",
"2222222222222222 o<1 .$%%&=;;;;;;;;;;;;;%$. 1<o 2222222222222222",
"2222222222222222o@:<.X$%%&=;;;;;;;;;;;;;%$X.<:@o2222222222222222",
"22222222222222  <:@o$$%%%&=;;;;;;;;;;;;;%%$$o@:<  22222222222222",
"22222222222222  1<o %%%%%&=;;;;;;;;;;;;;%%%% o<1  22222222222222",
"22222222222222  1<o %%%%;;;;;;;;;;;;;;;;%%%% o<1  22222222222222",
"22222222222222  1<o %%%%;;;;;;;;;;;;;;;;%%%% o<1  22222222222222",
"22222222222222  1<o %%%%;;;;;;;;;;;;;;;;%%%% o<1  22222222222222",
"22222222222222  1<o %%%%;;;;;;;;;;;;;;;;%%%% o<1  22222222222222",
"22222222222222  1<o %%%%;;;;;;;;;;;;;;;;%%%% o<1  22222222222222",
"22222222222222  1<o %%%%;;;;;;;;;;;;;;;;%%%% o<1  22222222222222",
"22222222222222  1<o %%%%;;;;;;;;;;;;;;;;%%%% o<1  22222222222222",
"22222222222222  1<o %%%%;;;;;;;;;;;;;;;;%%%% o<1  22222222222222",
"22222222222222  1<o %%%%;;;;;;;;;;;;;;;;%%%% o<1  22222222222222",
"22222222222222  1<o %%%%;;;;;;;;;;;;;;;;%%%% o<1  22222222222222",
"22222222222222  1<o %%%%;;;;;;;;;;;;;;;;%%%% o<1  22222222222222",
"22222222222222  1<o %%%%;;;;;;;;;;;;;;;;%%%% o<1  22222222222222",
"22222222222222  1<o %%%%;;;;;;;;;;;;;;;;%%%% o<1  22222222222222",
"22222222222222  1<o %%%%;;;;;;;;;;;;;;;;%%%% o<1  22222222222222",
"22222222222222  1<o %%%%;;;;;;;;;;;;;;;;%%%% o<1  22222222222222",
"22222222222222  1<o %%%%;;;;;;;;;;;;;;;;%%%% o<1  22222222222222",
"22222222222222  1<o %%%%;;;;;;;;;;;;;=&%%%%% o<1  22222222222222",
"22222222222222  <:@o$$%%=-;;;;;;;;;;;=&%%%$$o@:<  22222222222222",
"2222222222222222o@:<.X$%&*-;;;;;;;;;;=&%%$X.<:@o2222222222222222",
"2222222222222222 o<1 .$%%&=;;;;;;;;;;=&%%$. 1<o 2222222222222222",
"2222222222222222 o<1 .$%%%%%;;;;;;;;%%%%%$. 1<o 2222222222222222",
"2222222222222222 O,<o+#$%%%%;;;;;;;;%%%%$#+o<,O 2222222222222222",
"222222222222222222Oo<>+.%%%%;;;;;;;;%%%%.+><oO222222222222222222",
"222222222222222222  1<o %%%%;;;;;;;;%%%% o<1  222222222222222222",
"222222222222222222  1<o %%%%%%%%%%%%%%%% o<1  222222222222222222",
"222222222222222222  <:@o$$%%%%%%%%%%%%$$o@:<  222222222222222222",
"22222222222222222222o@:<.X$%%%%%%%%%%$X.<:@o22222222222222222222",
"22222222222222222222 o<1 .$%%%%%%%%%%$. 1<o 22222222222222222222",
"2222222222222222222222  1<o          o<1  2222222222222222222222",
"2222222222222222222222  <:@oooooooooo@:<  2222222222222222222222",
"222222222222222222222222o@:<<<<<<<<<<:@o222222222222222222222222",
"222222222222222222222222 o<1111111111<o 222222222222222222222222",
"22222222222222222222222222            22222222222222222222222222",
"22222222222222222222222222            22222222222222222222222222",
"2222222222222222222222222222222222222222222222222222222222222222",
"2222222222222222222222222222222222222222222222222222222222222222",
"2222222222222222222222222222222222222222222222222222222222222222",
"2222222222222222222222222222222222222222222222222222222222222222",
"2222222222222222222222222222222222222222222222222222222222222222",
"2222222222222222222222222222222222222222222222222222222222222222"
};
